<?xml version="1.0" encoding="utf-8"?>
<svg version="1.1" id="svg2" width="300px" height="200.002px" viewBox="0 0 4000 2666.6667" xmlns="http://www.w3.org/2000/svg">
  <g id="g10" transform="matrix(1.3333333,0,0,-1.3333333,0,2666.6667)">
    <g id="g12" transform="scale(0.1)">
      <g id="g14" transform="scale(1.84049)">
        <path d="M 16300,0 H 0 V 10866.7 H 16300 V 0" style="fill:#ffffff;fill-opacity:1;fill-rule:nonzero;stroke:none" id="path16"/>
      </g>
      <g id="g18" transform="scale(1.74396)">
        <path d="m 2703.67,1612.48 c 0,0 -2072.887,2202.92 -619.36,4257.87 542.37,766.79 1927.04,1197.38 3199.89,848.06 751.84,-206.33 1892.07,-175.89 3006.2,1642.84 1519.3,2480.25 7826.5,1352.45 6595.3,-2993.06 -518.5,-1830.43 1414.3,-1913.75 456.9,-3759.66 l -12638.93,3.95" style="fill:#ebf3fa;fill-opacity:1;fill-rule:nonzero;stroke:none" id="path20"/>
      </g>
      <g id="g22" transform="scale(1.48994)">
        <path d="M 16300,7052.79 11015.1,2631.51 8234.53,5000.25 C 7714.04,4541.98 6910.32,3834.57 6101.71,3124.75 5549.13,2639.63 5101.75,2247.67 4739.13,1930.41 l -2525.56,2.95 c 700.36,596.26 3520.29,3074.28 5420.07,4748.97 l 580.89,512.05 2810.87,-2394.6 4125.7,3451.6 1148.9,-1198.59" style="fill:#d5e5fb;fill-opacity:1;fill-rule:nonzero;stroke:none" id="path24"/>
      </g>
      <g id="g26" transform="scale(1.61884)">
        <path d="m 13329,8094.84 2316.6,-2323.67 654.4,2654.47 -2971,-330.8" style="fill:#d5e5fb;fill-opacity:1;fill-rule:nonzero;stroke:none" id="path28"/>
      </g>
      <path d="m 9283.61,5178.2 c -14.01,344.4 -44.2,644.1 -80.33,853 -57.61,333.1 -109.46,524.7 -110.06,526.7 -7.59,29.3 -117.2,147.9 -360.92,144.2 -243.71,-3.6 -220.6,-159.1 -220.6,-159.1 v 0 c -0.02,-5.2 0.67,-10.1 1.75,-13.8 2.35,-8 226.06,-819.2 216.37,-1866.5 -0.13,-14.7 -1.78,-40.1 -0.74,-57 0.01,-0.1 564.78,-14.6 564.91,0 19.7,91.5 10.09,345.1 -10.38,572.5" style="fill:#b7d3f3;fill-opacity:1;fill-rule:nonzero;stroke:none" id="path30"/>
      <path d="m 9354.62,4667.9 c -0.17,-14.6 -7.87,-26.3 -17.27,-26.3 h -0.22 c -9.39,0.2 -16.87,11.9 -16.98,26.3 h -484.01 c -0.17,-14.6 -7.88,-26.3 -17.27,-26.3 h -0.23 c -9.56,0.2 -17.15,12.3 -17.04,27 2.81,299.8 -14.28,579.8 -40.15,826.9 -64.35,616.2 -183.29,1028 -184.98,1033.7 -1.07,3.7 -1.74,8.6 -1.74,13.8 0,0 -23.12,155.4 220.57,159.1 243.75,3.7 353.37,-114.9 360.96,-144.2 0.45,-1.5 29.81,-110 68.84,-305.1 12.93,-64.6 26.88,-138.7 41.22,-221.6 36.11,-208.9 66.31,-508.6 80.32,-853 20.46,-227.4 27.67,-418.8 7.98,-510.3" style="fill:#d2e3fc;fill-opacity:1;fill-rule:nonzero;stroke:none" id="path32"/>
      <path d="m 8765.83,4641.6 h 1897.57 c 0,0 -44.2,178.8 -1143.14,152.2 -777.7,-18.9 -754.43,-152.2 -754.43,-152.2" style="fill:#c5dcf8;fill-opacity:1;fill-rule:nonzero;stroke:none" id="path34"/>
      <path d="m 8611.38,2773.7 c 220.02,1113.8 163.44,1797.3 163.17,1805.9 -0.56,17.2 31.05,32.7 48.05,33.3 17.21,0.3 93.15,5.1 101.94,-9.6 11.51,-19.2 55.82,-861.3 -272.09,-1829.6 h -41.07" style="fill:#b7d3f3;fill-opacity:1;fill-rule:nonzero;stroke:none" id="path36"/>
      <path d="m 10383.1,2773.7 c -220,1113.8 -163.4,1797.3 -163.1,1805.9 0.5,17.2 -31.1,32.7 -48.1,33.3 -17.2,0.3 -93.1,5.1 -101.9,-9.6 -11.5,-19.2 -55.9,-861.3 272.1,-1829.6 h 41" style="fill:#b7d3f3;fill-opacity:1;fill-rule:nonzero;stroke:none" id="path38"/>
      <path d="m 10734.2,2773.7 c -220,1113.8 -163.4,1797.3 -163.1,1805.9 0.5,17.2 -31.1,32.7 -48.1,33.3 -17.2,0.3 -93.1,5.1 -101.9,-9.6 -11.5,-19.2 -55.8,-861.3 272.1,-1829.6 h 41" style="fill:#b7d3f3;fill-opacity:1;fill-rule:nonzero;stroke:none" id="path40"/>
      <path d="m 8964.86,2773.7 c 220.02,1113.8 163.45,1797.3 163.17,1805.9 -0.55,17.2 31.05,32.7 48.05,33.3 17.22,0.3 93.16,5.1 101.94,-9.6 11.52,-19.2 55.82,-861.3 -272.09,-1829.6 h -41.07" style="fill:#b7d3f3;fill-opacity:1;fill-rule:nonzero;stroke:none" id="path42"/>
      <path d="M 10664.5,4584.5 H 8766.96 c -21.38,0 -38.87,17.5 -38.87,38.9 v 25.5 c 0,21.4 17.49,38.9 38.87,38.9 h 1897.54 c 21.4,0 38.9,-17.5 38.9,-38.9 v -25.5 c 0,-21.4 -17.5,-38.9 -38.9,-38.9" style="fill:#b7d3f3;fill-opacity:1;fill-rule:nonzero;stroke:none" id="path44"/>
      <path d="m 10597.9,6298.2 630.7,136.6 37.2,-90.5 c 0,0 -696,-414.2 -761.2,-393.9 -65.2,20.3 93.3,347.8 93.3,347.8" style="fill:#ffb27d;fill-opacity:1;fill-rule:nonzero;stroke:none" id="path46"/>
      <path d="m 10024.4,3445.4 c -15.8,-18.1 -17.8,-38.3 -10,-59.9 0,-0.1 0.1,-0.2 0.2,-0.3 14.4,-39.9 62.2,-84.6 117.7,-129.1 7.1,-5.7 13.4,-11 18.9,-15.8 1.4,-1.2 2.9,-2.5 4.2,-3.8 1.1,-1 2.2,-2 3.3,-2.9 51.7,-47.7 32.3,-58.6 125.2,-155.4 106,-110.3 179,-112.3 199.7,-102.3 17.6,8.6 -18.1,67.1 -57.6,132.8 -1.9,3.2 -3.8,6.4 -5.8,9.6 -5.2,8.8 -10.5,17.6 -15.7,26.4 -46.3,79.1 -34.4,116.3 -23.5,234 9,95.7 148.9,534.6 148.9,534.6 l -203.1,35 c 0,0 -61.2,-349.5 -128.6,-403.3 -36,-28.7 -76.4,-29.1 -111,-50.3 -2.5,-1.5 -4.9,-3 -7.2,-4.6 -19.7,-13 -39.7,-26.5 -55.6,-44.7" style="fill:#ffb27d;fill-opacity:1;fill-rule:nonzero;stroke:none" id="path48"/>
      <path d="m 10024.4,3445.4 c -15.8,-18.1 -17.8,-38.3 -10,-59.9 0,-0.1 0.1,-0.2 0.2,-0.3 17.7,-39.9 64.2,-84.3 117.9,-128.7 7,-5.8 13.2,-11.2 18.7,-16.2 1.4,-1.2 2.9,-2.5 4.2,-3.8 1.1,-1 2.2,-2 3.3,-2.9 51.7,-47.7 32.3,-58.6 125.2,-155.4 106,-110.3 179,-112.3 199.7,-102.3 17.6,8.6 -18.1,67.1 -57.6,132.8 -20.6,7.6 -116.5,46.5 -189,139.3 -63.8,81.4 -106.3,186.1 -149.8,246.7 -2.5,-1.5 -4.9,-3 -7.2,-4.6 -19.7,-13 -39.7,-26.5 -55.6,-44.7" style="fill:#1c468a;fill-opacity:1;fill-rule:nonzero;stroke:none" id="path50"/>
      <path d="m 11662.3,3572.3 c 12.5,-62.7 101.9,-52.2 201.8,-27.8 99.8,24.4 76.1,-4.6 218.2,11.1 142.1,15.7 185.2,68.7 189.5,89.8 3.9,18.8 -66.3,25.4 -141.7,34.1 -9.4,1 -19,2.2 -28.5,3.4 -85,10.7 -147.3,65.5 -224.5,110.6 -73.2,42.7 -182.4,216.6 -182.4,216.6 l -194.9,-15.4 c 0,0 102.3,-155.4 141.9,-222.9 23.2,-39.7 22,-92.3 19.1,-132.8 -1.5,-22.1 -2.9,-44.6 1.5,-66.7" style="fill:#ffb27d;fill-opacity:1;fill-rule:nonzero;stroke:none" id="path52"/>
      <path d="m 11864.1,3544.5 c 99.8,24.4 76.1,-4.6 218.2,11.1 142.1,15.7 185.2,68.7 189.5,89.8 3.9,18.8 -66.3,25.4 -141.7,34.1 l -0.7,-1.5 c 0,0 -85.2,-60.4 -203.5,-63.2 -96.4,-2.4 -198.5,25.3 -265.1,24.2 -1.5,-22.1 -2.9,-44.6 1.5,-66.7 12.5,-62.7 101.9,-52.2 201.8,-27.8" style="fill:#1c468a;fill-opacity:1;fill-rule:nonzero;stroke:none" id="path54"/>
      <path d="m 11228.6,6434.8 c 0,0 46.5,113.8 97.6,118.4 51,4.7 213.6,30.2 225.2,7 11.6,-23.2 0,-106.8 -34.9,-137 -34.8,-30.2 -250.7,-78.9 -250.7,-78.9 l -37.2,90.5" style="fill:#ffb27d;fill-opacity:1;fill-rule:nonzero;stroke:none" id="path56"/>
      <path d="m 10915.4,4818.5 -420,-1130.4 c 0,0 -64.5,-6.2 -126.4,11.6 -56.9,16.4 -122.2,59.5 -122.2,59.5 0,0 104.2,1085.4 295.3,1311.1 191,225.8 373.3,-251.8 373.3,-251.8" style="fill:#163560;fill-opacity:1;fill-rule:nonzero;stroke:none" id="path58"/>
      <path d="m 9254.09,5275.8 c 0,0 1206.91,408.1 1476.11,321.3 269.2,-86.9 1077.3,-1694.8 1077.3,-1694.8 0,0 -18.2,-24.2 -68,-42.9 -46.3,-17.4 -158.4,-16.3 -158.4,-16.3 0,0 -729.4,625.2 -816.2,807.5 -86.8,182.4 -121.5,356 -208.4,338.7 -86.8,-17.4 -1120.07,-425.5 -1354.51,-182.4 -234.44,243.1 -173.13,559 -173.13,559 l 225.23,-90.1" style="fill:#1c468a;fill-opacity:1;fill-rule:nonzero;stroke:none" id="path60"/>
      <path d="m 9942.17,8153.5 c -52.17,29.6 -114.69,32.9 -158.42,30.3 11.26,11.6 33.41,15.9 33.41,15.9 -27.12,4 -87.64,-22.9 -87.64,-22.9 -377.2,145.3 -436.49,-410.1 -428.56,-539.1 7.86,-129 8.82,-277.5 -179.48,-393.3 -370.49,-227.7 -57.89,-625.2 -57.89,-625.2 2.92,-1.7 172.38,-289.1 172.38,-289.1 -9.51,104.3 471.59,654.5 722.59,819.3 61.14,90 82.84,248.9 84.44,261.4 -10.5,-126 -32.1,-196.7 -51.36,-236.5 212.56,195.6 88.76,900.6 -49.47,979.2" style="fill-opacity: 1; fill-rule: nonzero; stroke: none; fill: rgb(60, 102, 181);" id="path62"/>
      <path d="m 9943.71,7141.2 c 1.25,-0.5 -121.2,-64.1 -213.3,-38.9 -86.64,23.6 -143.25,135.9 -142.06,136.2 36.7,7.3 47.28,57.7 46.5,274.3 l 16.59,-3.2 278.88,-55.2 c 0,0 -6.34,-87.8 -6.53,-170.5 -0.19,-69.4 4.02,-135.3 19.92,-142.7" style="fill:#ffb27d;fill-opacity:1;fill-rule:nonzero;stroke:none" id="path64"/>
      <path d="m 9930.32,7454.4 c 0,0 -6.34,-87.8 -6.53,-170.5 -156.06,4.4 -238.55,146.8 -272.35,225.7 l 278.88,-55.2" style="fill:#ed975d;fill-opacity:1;fill-rule:nonzero;stroke:none" id="path66"/>
      <path d="m 9622.63,7539.9 c 0,0 -81.79,129.3 -101.41,239.8 -14.02,78.8 26.16,371.3 320.01,329.1 0,0 85.34,-8.4 165.57,-62.6 63.8,-43 155.9,-136.1 52.9,-391.2 l -26.7,-86.2 -410.37,-28.9" style="fill-opacity: 1; fill-rule: nonzero; stroke: none; fill: rgb(60, 102, 181);" id="path68"/>
      <path d="m 9982.44,7376.1 c 0,0 -369.24,-6.1 -369.5,223.9 -0.25,230 -48.08,384.1 187.67,397.7 235.69,13.6 281.59,-74.1 300.39,-150.8 18.8,-76.8 -22.5,-463.3 -118.56,-470.8" style="fill:#ffb27d;fill-opacity:1;fill-rule:nonzero;stroke:none" id="path70"/>
      <path d="m 9968.77,8003.3 c 0,0 -101.09,-269.8 -256.25,-309.7 -155.15,-39.9 -222.45,1.7 -222.45,1.7 0,0 119.01,94.5 143.71,259.5 0,0 258.73,177 334.99,48.5" style="fill-opacity: 1; fill-rule: nonzero; stroke: none; fill: rgb(60, 102, 181);" id="path72"/>
      <path d="m 9943.72,7981.4 c 0,0 75.48,-60.2 93.88,-118.8 18.4,-58.6 26.7,-179.1 61.9,-175 0,0 76.1,183.4 -9.5,287.1 -90.74,110.1 -146.28,6.7 -146.28,6.7" style="fill-opacity: 1; fill-rule: nonzero; stroke: none; fill: rgb(60, 102, 181);" id="path74"/>
      <path d="m 9121.48,6147.9 c -36.41,152.7 87.48,449 216.8,694.3 117.34,222.4 239.14,402.8 250.08,396.3 309.47,-183.7 337.44,-31 337.44,-31 h 0.01 c 0.12,0 281.09,-37.3 360.69,-174.3 98.7,-170 205.4,-645.1 311.4,-735 -16.3,-49.8 -9.3,-76.3 7.9,-138 3.7,-13.2 7.8,-25.8 12.3,-37.7 16,-43.4 35.9,-78.7 53.2,-109.2 -53.9,-32.8 -157.9,-95 -234.5,-50.3 -116.8,68.4 -208,276.5 -259.3,359.4 -0.2,0.3 -0.3,0.6 -0.5,0.9 -111.5,-631.1 40.1,-774.8 -36.7,-841.3 -81,-70.3 -196.79,33.4 -451.51,-77 -167.06,-72.5 -398.91,-177.2 -554.98,-195.5 -81.85,-9.6 -142.93,4.7 -162.84,59.9 -57.89,160.7 219.98,587.3 150.51,878.5" style="fill:#1c468a;fill-opacity:1;fill-rule:nonzero;stroke:none" id="path76"/>
      <path d="m 9900.36,7515.5 c 0,0 6.88,-29.2 79.57,-24.7 0,0 61.07,3.7 59.17,35.9 0,0 -59.19,22.8 -138.74,-11.2" style="fill:#ffffff;fill-opacity:1;fill-rule:nonzero;stroke:none" id="path78"/>
      <path d="m 8970.97,5269.4 c 19.91,-55.2 80.99,-69.5 162.84,-59.9 108.03,47.1 574.67,227.9 569.46,350.4 -7.76,181.3 -89.73,187.1 -31.84,411 46.49,179.7 -384.69,513.9 -453.47,586.6 -129.32,-245.3 -132.89,-256.9 -96.48,-409.6 69.47,-291.2 -208.4,-717.8 -150.51,-878.5" style="fill:#163560;fill-opacity:1;fill-rule:nonzero;stroke:none" id="path80"/>
      <path d="m 8918.22,5923.6 c 82.76,116.2 168.97,177.6 225.68,208.5 -13.05,33.7 348.09,476.4 348.09,545 0,69.5 96.36,561.4 96.36,561.4 0,0 -300.91,-18.6 -405.1,-163.9 -130.3,-181.7 -400.91,-881 -265.03,-1151" style="fill:#1c468a;fill-opacity:1;fill-rule:nonzero;stroke:none" id="path82"/>
      <path d="m 9143.9,6132.1 601.34,-156.9 -56.45,-101.3 c 0,0 -731.79,5.1 -770.57,49.7 -38.78,44.5 225.68,208.5 225.68,208.5" style="fill:#ffb27d;fill-opacity:1;fill-rule:nonzero;stroke:none" id="path84"/>
      <path d="m 10177.5,6322.4 c 51.3,-82.9 142.5,-291 259.3,-359.4 76.6,-44.7 180.6,17.5 234.5,50.3 -17.3,30.5 -37.2,65.8 -53.2,109.2 -43,-9.9 -95.4,-22.4 -129.3,-32.6 -65.8,-19.9 -311.3,232.5 -311.3,232.5" style="fill:#163560;fill-opacity:1;fill-rule:nonzero;stroke:none" id="path86"/>
      <path d="m 9745.24,5975.2 c 0,0 188.83,53.5 233.81,41 44.95,-12.5 199.05,-114.6 177.45,-142.3 -21.7,-27.7 -157.46,16.6 -219.93,8.2 -62.47,-8.4 -110.78,-39.2 -155.76,-32.5 -44.98,6.6 -92.02,24.3 -92.02,24.3 l 56.45,101.3" style="fill:#ffb27d;fill-opacity:1;fill-rule:nonzero;stroke:none" id="path88"/>
      <path d="m 9745.24,5975.2 c 0,0 92.39,47.5 118.67,74.5 3.31,3.4 8.92,2.7 11.47,-1.3 7.04,-11.1 13.63,-32.6 -18.77,-53.9 -46.65,-30.7 -111.37,-19.3 -111.37,-19.3" style="fill:#ffb27d;fill-opacity:1;fill-rule:nonzero;stroke:none" id="path90"/>
      <path d="m 10617.9,5709.5 h -880.99 v 0 c 0,38.8 31.44,70.3 70.23,70.3 h 810.76 v -70.3" style="fill-opacity: 1; fill-rule: nonzero; stroke: none; fill: rgb(127, 43, 237);" id="path92"/>
      <path d="m 10615.4,6669.1 h 1362.1 l -326.7,-959.6 h -1371 l 335.6,959.6" style="fill-opacity: 1; fill-rule: nonzero; stroke: none; fill: rgb(127, 43, 237);" id="path94"/>
      <path d="m 11997.6,6669 -326.8,-959.4 h -1370.9 l 335.5,959.4 h 1362.2" style="fill-opacity: 1; fill-rule: nonzero; stroke: none; fill: rgb(147, 70, 249);" id="path96"/>
      <path d="m 11263.2,6198.2 c -8.5,-36.7 -45.1,-66.4 -81.7,-66.4 -36.7,0 -59.5,29.7 -51.1,66.4 8.5,36.6 45.1,66.4 81.7,66.4 36.7,0 59.6,-29.8 51.1,-66.4" style="fill-opacity: 1; fill-rule: nonzero; stroke: none; fill: rgb(216, 191, 249);" id="path98"/>
      <path d="m 11997.6,6669 -326.8,-959.4 h -907.9 c 601.4,205.2 761.5,831.1 788.4,959.4 h 446.3" style="fill-opacity: 1; fill-rule: nonzero; stroke: none; fill: rgb(138, 62, 237);" id="path100"/>
      <path d="m 8043.18,2773.7 c 17.23,0 31.96,12.1 34.9,28.7 l 171.08,969.6 246.07,1394.7 68.81,389.9 -175.27,5 -30.41,-226.4 -213.51,-1590.9 -126.59,-943 c -1.95,-14.6 9.74,-27.6 24.92,-27.6" style="fill:#95c0f4;fill-opacity:1;fill-rule:nonzero;stroke:none" id="path102"/>
      <path d="m 8358.36,5335.2 c 113.56,-50.1 136.87,-168.5 136.87,-168.5 l 68.81,389.9 -175.27,5 -30.41,-226.4" style="fill:#78acea;fill-opacity:1;fill-rule:nonzero;stroke:none" id="path104"/>
      <path d="m 12402.6,2773.7 c -17.2,0 -31.9,12.1 -34.9,28.7 l -171,969.6 -246.1,1394.7 -68.8,389.9 175.2,5 30.4,-226.4 213.6,-1590.9 126.5,-943 c 2,-14.6 -9.7,-27.6 -24.9,-27.6" style="fill:#95c0f4;fill-opacity:1;fill-rule:nonzero;stroke:none" id="path106"/>
      <path d="m 12087.4,5335.2 c -113.5,-50.1 -136.8,-168.5 -136.8,-168.5 l -68.8,389.9 175.2,5 30.4,-226.4" style="fill:#78acea;fill-opacity:1;fill-rule:nonzero;stroke:none" id="path108"/>
      <path d="m 7926.24,5403.5 h 4488.36 c 58.8,0 106.9,48.1 106.9,106.9 v 92.4 c 0,58.8 -48.1,106.9 -106.9,106.9 H 7926.24 c -58.8,0 -106.9,-48.1 -106.9,-106.9 v -92.4 c 0,-58.8 48.1,-106.9 106.9,-106.9" style="fill:#78acea;fill-opacity:1;fill-rule:nonzero;stroke:none" id="path110"/>
      <g id="g112" transform="scale(1.72436)">
        <path d="M 16282.6,1613.93 H 979.25 c -9.557,0 -17.375,7.77 -17.375,17.34 v 5.97 c 0,9.51 7.818,17.34 17.375,17.34 H 16282.6 c 9.6,0 17.4,-7.83 17.4,-17.34 v -5.97 c 0,-9.57 -7.8,-17.34 -17.4,-17.34" style="fill:#2e3552;fill-opacity:1;fill-rule:nonzero;stroke:none" id="path114"/>
      </g>
      <g id="g116" transform="scale(1.17667)">
        <path d="m 16210.8,4991.13 c 0,0 -99,-122.72 -68,-139.47 30.8,-16.74 112.6,-48.01 131.9,-28.3 19.3,19.72 25.3,164.37 25.3,164.37 l -89.2,3.4" style="fill-opacity: 1; fill-rule: nonzero; stroke: none; fill: rgb(155, 75, 43);" id="path118"/>
      </g>
      <g id="g120" transform="scale(1.17052)">
        <path d="m 16300,5015.31 c 0,0 -40.7,-14.09 -56.6,-35.28 -16,-21.1 -51.4,-53.4 -42.8,-62.28 8.8,-8.97 59.5,30.5 59.5,30.5 l 39.9,67.06" style="fill-opacity: 1; fill-rule: nonzero; stroke: none; fill: rgb(155, 75, 43);" id="path122"/>
      </g>
      <g id="g124" transform="scale(1.19723)">
        <path d="m 16300,6516.06 c 0,0 -109.6,-1020.44 -119.4,-1049.51 -2,-6.27 -10.6,-38.59 -22.8,-85.03 -17.2,-66.41 -41.6,-161.79 -64.8,-252.5 -34.8,-136.98 -66.8,-263.44 -66.8,-263.44 l -95.2,31.4 c 0,0 -4.9,495.9 19.5,610.08 24.6,114.18 102.8,815.8 142.4,910.19 39.5,94.38 207.1,98.81 207.1,98.81" style="fill:#aec3ff;fill-opacity:1;fill-rule:nonzero;stroke:none" id="path126"/>
      </g>
      <g id="g128" transform="scale(1.20009)">
        <path d="m 16033.7,4059.36 -596.4,156.4 c -77.6,20.42 -124.5,100.58 -104.1,178.15 l 67.8,258.48 c 20.3,77.58 100.5,124.49 178.1,104.08 l 596.4,-156.41 c 77.7,-20.33 124.5,-100.49 104.2,-178.15 l -67.9,-258.39 c -20.3,-77.67 -100.5,-124.5 -178.1,-104.16" style="fill-opacity: 1; fill-rule: nonzero; stroke: none; fill: rgb(46, 86, 160);" id="path130"/>
      </g>
      <g id="g132" transform="scale(1.20589)">
        <path d="m 15942.5,4619.41 -212,55.65 14.6,55.47 c 2.4,9.54 12.3,15.26 21.8,12.78 l 53.3,-13.94 97.7,-25.62 26.3,-6.88 c 1.9,-0.5 3.4,-1.25 5,-2.16 6.5,-4.06 9.9,-12.03 7.9,-19.82 z m -537.3,-9.78 -68.2,-260.14 c -13.2,-50.42 1.9,-101.84 35.4,-137.25 11,-11.77 24.1,-21.81 39,-29.35 0,0 0,0 0,0 v -0.09 c 9.3,-4.72 19.1,-8.54 29.6,-11.27 l 592.5,-155.41 c 77.5,-20.31 157.6,26.46 177.9,103.99 l 68.3,260.22 c 20.3,77.54 -26.5,157.65 -104,177.97 l -204,53.48 14.5,55.48 c 6.8,25.71 -8.7,51.99 -34.3,58.71 l -22.3,5.89 -124.2,32.51 -30.8,8.12 c -12.4,3.24 -25.3,1.41 -36.4,-5.06 -11.1,-6.46 -19.1,-16.91 -22.3,-29.27 l -14.5,-55.48 -118.2,31.02 c -4.7,1.24 -9.4,2.16 -14,2.9 h -0.1 -0.1 c -47.4,7.63 -94.5,-9.2 -126.8,-41.96 v -0.08 c -17.3,-17.5 -30.3,-39.56 -37,-64.93" style="fill-opacity: 1; fill-rule: nonzero; stroke: none; fill: rgb(63, 107, 188);" id="path134"/>
      </g>
      <g id="g136" transform="scale(1.17635)">
        <path d="m 16273,4821.95 c 0,0 27,45.48 16.9,61.38 -10.1,15.89 -46.6,-47.18 -46.6,-47.18 0,0 24.9,54.15 15.6,63.07 -9.3,8.93 -47.5,-53.3 -47.5,-53.3 0,0 23.8,52.63 15.5,54.41 -8.3,1.79 -36.6,-44.29 -36.6,-44.29 0,0 14.7,39.44 1.2,37.49 -13.4,-1.87 -42.5,-37.74 -42.5,-37.74 l 124,-33.84" style="fill-opacity: 1; fill-rule: nonzero; stroke: none; fill: rgb(155, 75, 43);" id="path138"/>
      </g>
      <g id="g140" transform="scale(1.18679)">
        <path d="m 16300,5428.87 c -17.4,-66.99 -42,-163.22 -65.4,-254.72 -15,42.3 -34.1,109.62 -46.2,201.97 -22.2,170.29 46.1,533.29 46.1,533.29 l 65.5,-480.54" style="fill:#9db0f4;fill-opacity:1;fill-rule:nonzero;stroke:none" id="path142"/>
      </g>
      <g id="g144" transform="scale(1.29102)">
        <path d="m 16146.9,4588 c 0,0 98.3,-79.85 110.4,-104.79 12.1,-24.95 42.7,-117.28 41.1,-147.02 -1.7,-29.82 -75.3,68.08 -97,75.98 -21.6,7.91 22.6,-40.19 17.7,-50.5 -5,-10.3 -51.2,23.39 -68.7,34.4 -17.6,10.99 -29.9,85.66 -56.2,126.33 -26.2,40.59 52.7,65.6 52.7,65.6" style="fill-opacity: 1; fill-rule: nonzero; stroke: none; fill: rgb(155, 75, 43);" id="path146"/>
      </g>
      <g id="g148" transform="scale(1.21833)">
        <path d="m 15743.6,2328.43 h 519.2 c 37.2,25.2 -10,271.85 -10,271.85 0,0 -141.7,53.84 -166.2,-55.57 -24.5,-109.25 -180.5,-143.97 -263.1,-157.35 -56.4,-9.19 -74.3,-40.21 -79.9,-58.93" style="fill:#233862;fill-opacity:1;fill-rule:nonzero;stroke:none" id="path150"/>
      </g>
      <g id="g152" transform="scale(1.2759)">
        <path d="m 15768.6,2223.38 h 495.9 c 35.5,24.06 -9.6,259.58 -9.6,259.58 0,0 -135.3,51.42 -158.8,-53.06 -23.4,-104.32 -172.3,-137.47 -251.1,-150.25 -54,-8.77 -71,-38.4 -76.4,-56.27" style="fill:#233862;fill-opacity:1;fill-rule:nonzero;stroke:none" id="path154"/>
      </g>
      <g id="g156" transform="scale(1.23593)">
        <path d="m 15657.2,4775.93 c 0,0 22.9,-287.07 50,-632.15 36.7,-468.72 135.9,-1630.85 135.9,-1630.85 0,0 65,-55.42 208.9,-25.08 0,0 122.5,400.91 159.2,858.47 0.5,7.52 1.1,15.04 1.7,22.65 34.1,465.8 87.1,1446.69 87.1,1446.69 l -642.8,-39.73" style="fill:#2b478b;fill-opacity:1;fill-rule:nonzero;stroke:none" id="path158"/>
      </g>
      <g id="g160" transform="scale(1.23593)">
        <path d="m 15649.3,4875.13 c 0,0 30.8,-386.27 57.9,-731.35 l 504,-797.46 c 0.5,7.52 1.1,15.04 1.7,22.65 34.1,465.8 87.1,1446.69 87.1,1446.69 l -650.7,59.47" style="fill:#233862;fill-opacity:1;fill-rule:nonzero;stroke:none" id="path162"/>
      </g>
      <g id="g164" transform="scale(1.27928)">
        <path d="m 15260.8,4709.91 c 0,0 353.2,-879.09 466.1,-1212.32 80.4,-237.32 307.2,-1069.98 307.2,-1069.98 0,0 98.6,-30.02 181.5,27.99 0,0 84.4,850.71 -86.1,1090.61 -90.4,127.26 -22.4,1322.85 -389,1333.09 -366.7,10.24 -479.7,-169.39 -479.7,-169.39" style="fill:#2b478b;fill-opacity:1;fill-rule:nonzero;stroke:none" id="path166"/>
      </g>
      <g id="g168" transform="scale(1.25314)">
        <path d="m 16266.2,4726.7 c -150.2,-84.82 -794.3,-82.91 -824,-16.35 -66.7,148.66 -83.4,903.97 -52,1135.63 0,0 16.3,356.06 52,340.34 237.8,109.33 622.8,10.06 622.8,10.06 103.8,-30.56 95,-267.81 123.9,-600.97 3.7,-42.94 7.8,-87.62 12.5,-133.91 20.5,-205.72 50.3,-442.01 95.6,-691.3 3,-16.44 -8.4,-30.96 -30.8,-43.5" style="fill:#aec3ff;fill-opacity:1;fill-rule:nonzero;stroke:none" id="path170"/>
      </g>
      <g id="g172" transform="scale(1.22139)">
        <path d="m 16300,6398.52 c -4.1,-65.34 -89.3,-57.97 -191.7,-34.55 -102.5,23.33 -65.4,83.75 -65.4,83.75 0,0 1.5,46.42 8,102.1 2.3,20.22 5.3,41.75 9.2,62.63 1.8,10.15 3.8,20.31 6.1,29.97 13.4,57.56 204.7,2.04 203.3,-13.43 -3.7,-41.75 26.5,-179.14 30.5,-230.47" style="fill-opacity: 1; fill-rule: nonzero; stroke: none; fill: rgb(155, 75, 43);" id="path174"/>
      </g>
      <g id="g176" transform="scale(1.21283)">
        <path d="m 16194,6328.84 -8.2,90.95 114.2,-21.6 -43.9,-81.14 -62.1,11.79" style="fill:#233862;fill-opacity:1;fill-rule:nonzero;stroke:none" id="path178"/>
      </g>
      <g id="g180" transform="scale(1.20858)">
        <path d="m 16215.4,6559 -68.6,-104.17 c 0,0 0,-64.04 59.5,-110.54 l 93.7,87.21 c 0,0 -60.6,23.08 -84.6,127.5" style="fill:#9db0f4;fill-opacity:1;fill-rule:nonzero;stroke:none" id="path182"/>
      </g>
      <g id="g184" transform="scale(1.22623)">
        <path d="m 16065.5,6338.96 c 0,0 19,-68.67 56,-100.15 0,0 144.2,38.74 178.5,112.62 l -75,96.89 c 0,0 -3.7,-73.32 -159.5,-109.36" style="fill:#9db0f4;fill-opacity:1;fill-rule:nonzero;stroke:none" id="path186"/>
      </g>
      <g id="g188" transform="scale(1.21919)">
        <path d="m 16300,6608.4 c 0,0 -92.3,-61.35 -220.1,-46.75 2.3,20.26 5.3,41.83 9.2,62.75 25.2,6.07 46.4,9.92 46.4,9.92 l 164.5,-25.92" style="fill-opacity: 1; fill-rule: nonzero; stroke: none; fill: rgb(110, 55, 25);" id="path190"/>
      </g>
      <g id="g192" transform="scale(1.23326)">
        <path d="m 16171.9,6601.91 c -44.6,-122.68 -207.4,-91.38 -276.6,-71.68 -19.5,5.52 -31.6,10.14 -31.6,10.14 -21.4,9.73 -28.1,47.11 -26.1,94.3 3.6,93.41 40.5,225.26 61.7,257.04 31.8,47.84 85,96.41 242.8,28.71 157.9,-67.71 87,-161.28 29.8,-318.51" style="fill-opacity: 1; fill-rule: nonzero; stroke: none; fill: rgb(155, 75, 43);" id="path194"/>
      </g>
      <g id="g196" transform="scale(1.23603)">
        <path d="m 16257.3,6650 c -49.7,-40.54 -156.5,-115.53 -156.5,-115.53 0,0 11.9,14.07 26.4,54.52 1.7,4.62 2.2,11.33 1.9,18.45 -0.5,19.82 4.2,39.64 14.7,56.55 6.4,10.6 8.8,21.52 0.6,29.29 -13.5,12.79 -36.5,1.05 -51.7,-9.3 -9.9,-6.8 -23,-7.2 -33.2,-0.89 -0.1,0.08 -0.2,0.08 -0.3,0.16 -42.4,26.62 4.5,73.46 -30,112.38 -34.6,38.91 -184,44.25 -178,68.6 -50.9,28.8 -18.8,135.11 -17.9,140.77 0,0 73.2,-6.47 164.6,16.35 74.2,18.61 156,-29.05 181.8,-48.63 0,4.7 -0.7,11.17 -4.1,18.12 0,0 11.2,-11.08 11.1,-24.02 1.1,-1.13 1.6,-1.94 1.2,-2.19 0,0 14.8,0.33 23.4,-5.42 0,0 -6.3,2.03 -9.3,-1.78 -0.4,-0.4 -0.8,-0.64 -1.3,-0.97 99.3,-70.14 97.8,-272.73 56.6,-306.46" style="fill:#233862;fill-opacity:1;fill-rule:nonzero;stroke:none" id="path198"/>
      </g>
      <g id="g200" transform="scale(1.20577)">
        <path d="m 16300,6770.63 c 0,0 -8.2,-15.84 -49.3,-2.74 0,0 -34.6,11.03 -28.9,29.28 0,0 37.3,4.56 78.2,-26.54" style="fill:#ffffff;fill-opacity:1;fill-rule:nonzero;stroke:none" id="path202"/>
      </g>
      <g id="g204" transform="scale(1.21398)">
        <path d="m 16178.6,6322.83 c 0,0 -91.1,-1150.59 -89.8,-1246.48 1.2,-95.88 100.9,-197.2 100.9,-197.2 0,0 79.3,86.9 94.8,178.59 15.5,91.68 -43.9,1253.31 -43.9,1253.31 l -62,11.78" style="fill:#2a4e96;fill-opacity:1;fill-rule:nonzero;stroke:none" id="path206"/>
      </g>
      <g id="g208" transform="scale(1.28126)">
        <path d="m 15712.4,6060.35 c 0,0 139.2,-33.33 249.3,-244.84 110.2,-211.51 197.1,-638.12 249.6,-750.67 52.6,-112.62 88.7,-467.19 88.7,-467.19 l -83.3,-40.82 c 0,0 -200.9,363.39 -230.6,482.57 -16.1,64.47 -261.8,580.6 -261.8,580.6 l -11.9,440.35" style="fill:#aec3ff;fill-opacity:1;fill-rule:nonzero;stroke:none" id="path210"/>
      </g>
      <g id="g212" transform="scale(1.25314)">
        <path d="m 16266.2,4726.7 c 0,0 0,0 0,0 -268.2,38.55 -191.3,925.92 -170.3,929.44 21,3.51 98.1,-158.65 98.1,-158.65 l 7.4,-35.99 c 20.5,-205.72 50.3,-442.01 95.6,-691.3 3,-16.44 -8.4,-30.96 -30.8,-43.5" style="fill:#9db0f4;fill-opacity:1;fill-rule:nonzero;stroke:none" id="path214"/>
      </g>
      <g id="g216" transform="scale(1.5163)">
        <path d="m 16207.7,2304.36 c 0,0 92.3,-84.22 74.3,-144.04 -18,-59.81 -101.3,-99.71 -112.5,-172.85 -11.3,-73.07 -56.3,-112.97 -96.8,-112.97 -40.5,0 -193.1,0 -193.1,0 0,0 -29.8,51.44 42.2,66.94 72,15.49 99.2,101.43 94.7,181.23 -4.5,79.73 6.7,186.11 6.7,186.11 l 153,35.41 31.5,-39.83" style="fill:#233862;fill-opacity:1;fill-rule:nonzero;stroke:none" id="path218"/>
      </g>
      <g id="g220" transform="scale(1.40397)">
        <path d="m 16282.1,2253.54 c 0,0 17.9,-206.98 -25.9,-228.49 l -559.8,1.13 c 0,0 0,64.61 89.9,79 90,14.31 247.9,66.95 274.7,184.26 26.7,117.24 221.1,-35.9 221.1,-35.9" style="fill:#233862;fill-opacity:1;fill-rule:nonzero;stroke:none" id="path222"/>
      </g>
      <g id="g224" transform="scale(1.43278)">
        <path d="m 15491.6,5072.66 c 0,0 28.9,-355.46 62.9,-782.75 46.2,-580.4 101.8,-1293.36 107.3,-1428.41 9.5,-234.51 47.7,-609.65 47.7,-609.65 0,0 90.4,-89.13 271.4,-51.58 0,0 161.4,535.53 207.4,1102.19 0.7,9.29 1.4,18.64 2.2,27.99 42.8,576.85 109.5,1791.48 109.5,1791.48 l -808.4,-49.27" style="fill:#2a4e96;fill-opacity:1;fill-rule:nonzero;stroke:none" id="path226"/>
      </g>
      <g id="g228" transform="scale(1.43278)">
        <path d="m 15491.6,5072.66 c 0,0 28.9,-355.46 62.9,-782.75 l 633.8,-987.45 c 0.7,9.29 1.4,18.64 2.2,27.99 42.8,576.85 109.5,1791.48 109.5,1791.48 l -808.4,-49.27" style="fill:#233862;fill-opacity:1;fill-rule:nonzero;stroke:none" id="path230"/>
      </g>
      <g id="g232" transform="scale(1.50772)">
        <path d="m 14847.1,4780.4 c 0,0 495.6,-1223.3 821.5,-1798.21 325.9,-574.91 427.7,-735.35 427.7,-735.35 0,0 186.7,73.55 203.7,123.7 0,0 -124.6,1109.89 -342.8,1380.43 -123.3,152.88 -229.7,492.07 -224.4,652.57 9.2,276.78 -94.7,597.53 -94.7,597.53 l -791,-220.67" style="fill:#2a4e96;fill-opacity:1;fill-rule:nonzero;stroke:none" id="path234"/>
      </g>
      <g id="g236" transform="scale(1.34612)">
        <path d="m 16186.3,5334.16 c 0,0 -103.7,-140.33 -111.3,-177.77 -7.7,-37.44 -16.6,-171.16 -4.2,-210.31 12.4,-39.15 77.1,116.78 103.2,134.76 26.2,17.98 -16.3,-61.36 -6.2,-73.4 10.2,-12.11 60.1,48.73 79.8,69.46 19.7,20.8 10.4,124.65 31.5,187.87 20.9,63.22 -92.8,69.39 -92.8,69.39" style="fill:#ffb27d;fill-opacity:1;fill-rule:nonzero;stroke:none" id="path238"/>
      </g>
      <g id="g240" transform="scale(1.37447)">
        <path d="m 16300,7221.54 c 0,0 -137.1,-1276.93 -149.4,-1313.31 -2.7,-7.93 -13.4,-48.38 -28.6,-106.51 -21.6,-83.02 -52.1,-202.41 -81,-315.83 -43.7,-171.49 -90.8,-319.76 -90.8,-319.76 0,0 -20.7,-13.39 -70.7,-9.1 -34.1,2.91 -52.5,32.02 -52.5,32.02 0,0 5,626.93 35.7,769.82 30.7,142.96 128.6,1020.83 178.1,1138.98 49.4,118.16 259.2,123.69 259.2,123.69" style="fill:#ffffff;fill-opacity:1;fill-rule:nonzero;stroke:none" id="path242"/>
      </g>
      <g id="g244" transform="scale(1.35947)">
        <path d="m 16300,5865.76 c -21.8,-83.93 -52.7,-204.64 -81.9,-319.32 -18.9,53.04 -42.9,137.48 -58,253.19 -27.9,213.69 57.8,668.79 57.8,668.79 l 82.1,-602.66" style="fill:#dceaff;fill-opacity:1;fill-rule:nonzero;stroke:none" id="path246"/>
      </g>
      <g id="g248" transform="scale(1.45479)">
        <path d="m 16258.2,4968.2 c -186,-104.89 -983,-102.55 -1019.9,-20.21 -82.4,183.95 -103.1,1118.65 -64.2,1405.36 0,0 20.2,440.61 64.2,421.23 294.4,135.21 770.9,12.37 770.9,12.37 128.4,-37.8 117.4,-331.39 153.3,-743.68 4.6,-53.06 9.7,-108.47 15.4,-165.66 25.4,-254.6 62.3,-547.09 118.3,-855.58 3.8,-20.28 -10.4,-38.29 -38,-53.83" style="fill:#ffffff;fill-opacity:1;fill-rule:nonzero;stroke:none" id="path250"/>
      </g>
      <g id="g252" transform="scale(1.40919)">
        <path d="m 16300,7057.74 c -5.1,-81.32 -111.2,-72.1 -238.9,-43 -127.5,29.02 -81.3,104.31 -81.3,104.31 0,0 1.9,57.8 10,127.08 2.9,25.17 6.5,51.97 11.4,77.96 2.2,12.72 4.7,25.27 7.6,37.37 16.7,71.6 254.9,2.51 253.2,-16.76 -4.6,-51.98 33,-223.05 38,-286.96" style="fill:#ffb27d;fill-opacity:1;fill-rule:nonzero;stroke:none" id="path254"/>
      </g>
      <g id="g256" transform="scale(1.39688)">
        <path d="m 16167.7,6976.68 -10.2,113.39 142.5,-26.85 -54.8,-101.29 -77.5,14.75" style="fill:#233862;fill-opacity:1;fill-rule:nonzero;stroke:none" id="path258"/>
      </g>
      <g id="g260" transform="scale(1.39078)">
        <path d="m 16194.4,7266.91 -85.5,-130.05 c 0,0 0,-80.02 74.2,-138.05 l 116.9,108.86 c 0,0 -75.6,28.83 -105.6,159.24" style="fill:#dceaff;fill-opacity:1;fill-rule:nonzero;stroke:none" id="path262"/>
      </g>
      <g id="g264" transform="scale(1.41613)">
        <path d="m 16008.1,6980.41 c 0,0 23.8,-85.37 69.8,-124.57 0,0 179.3,48.23 222.1,140.03 l -93.4,120.59 c 0,0 -4.5,-91.21 -198.5,-136.05" style="fill:#dceaff;fill-opacity:1;fill-rule:nonzero;stroke:none" id="path266"/>
      </g>
      <g id="g268" transform="scale(1.40602)">
        <path d="m 16300,7320.76 c 0,0 -114.9,-76.44 -274.2,-58.29 2.9,25.24 6.6,52.09 11.5,78.14 31.4,7.64 57.7,12.39 57.7,12.39 l 205,-32.24" style="fill:#e2915a;fill-opacity:1;fill-rule:nonzero;stroke:none" id="path270"/>
      </g>
      <g id="g272" transform="scale(1.42623)">
        <path d="m 16140.9,7302.61 c -55.4,-152.44 -257.5,-113.52 -343.6,-89.04 -24.2,6.85 -39.2,12.58 -39.2,12.58 -26.6,12.06 -34.9,58.49 -32.5,117.12 4.6,116.03 50.4,279.85 76.7,319.33 39.6,59.4 105.5,119.8 301.6,35.69 196.1,-84.14 108,-200.36 37,-395.68" style="fill:#ffb27d;fill-opacity:1;fill-rule:nonzero;stroke:none" id="path274"/>
      </g>
      <g id="g276" transform="scale(1.43021)">
        <path d="m 16247,7360.34 c -61.7,-50.33 -194.3,-143.47 -194.3,-143.47 0,0 14.7,17.43 32.8,67.67 2,5.72 2.6,14.06 2.4,22.92 -0.7,24.63 5.2,49.23 18.1,70.22 8.1,13.11 11,26.72 0.8,36.35 -16.8,15.87 -45.4,1.3 -64.1,-11.55 -12.4,-8.46 -28.6,-8.95 -41.3,-1.05 -0.1,0.05 -0.2,0.1 -0.3,0.15 -52.7,33.03 5.5,91.21 -37.3,139.51 -43,48.29 -228.4,54.92 -220.9,85.21 -63.4,35.75 -23.4,167.75 -22.3,174.73 0,0 90.9,-8.03 204.3,20.31 92.1,23.13 193.7,-36.03 225.8,-60.39 0,5.82 -1,13.94 -5.2,22.51 0,0 14,-13.77 13.8,-29.84 1.4,-1.42 2,-2.39 1.6,-2.65 0,0 18.3,0.35 29,-6.71 0,0 -7.9,2.47 -11.6,-2.21 -0.4,-0.53 -0.9,-0.88 -1.6,-1.23 123.3,-87.07 121.5,-338.62 70.3,-380.48" style="fill-opacity: 1; fill-rule: nonzero; stroke: none; fill: rgb(46, 86, 160);" id="path278"/>
      </g>
      <g id="g280" transform="scale(1.38674)">
        <path d="m 16300,7533.26 c 0,0 -10.2,-19.74 -61.7,-3.36 0,0 -43.1,13.74 -35.9,36.47 0,0 46.5,5.71 97.6,-33.11" style="fill:#ffffff;fill-opacity:1;fill-rule:nonzero;stroke:none" id="path282"/>
      </g>
      <g id="g284" transform="scale(1.39855)">
        <path d="m 16148.5,6968.38 c 0,0 -113.6,-1434.85 -112,-1554.4 1.6,-119.55 125.9,-245.97 125.9,-245.97 0,0 98.9,108.4 118.2,222.73 19.4,114.41 -54.7,1562.91 -54.7,1562.91 l -77.4,14.73" style="fill:#2a4e96;fill-opacity:1;fill-rule:nonzero;stroke:none" id="path286"/>
      </g>
      <g id="g288" transform="scale(1.45479)">
        <path d="m 16258.2,4968.2 c -0.1,0 -0.1,0 -0.1,0 -331.8,47.78 -236.8,1145.87 -210.7,1150.2 26,4.33 121.4,-196.31 121.4,-196.31 l 9.1,-44.48 c 25.4,-254.6 62.3,-547.09 118.3,-855.58 3.8,-20.28 -10.4,-38.29 -38,-53.83" style="fill:#dceaff;fill-opacity:1;fill-rule:nonzero;stroke:none" id="path290"/>
      </g>
      <g id="g292" transform="scale(1.55099)">
        <path d="m 16164.7,3892.81 -658.1,-191.49 c -85.7,-24.89 -176.1,24.76 -201.1,110.44 l -82.9,285.18 c -24.9,85.62 24.7,176.08 110.4,201.03 l 658,191.49 c 85.7,24.95 176.2,-24.76 201.1,-110.38 l 83,-285.17 c 24.9,-85.69 -24.7,-176.15 -110.4,-201.1" style="fill-opacity: 1; fill-rule: nonzero; stroke: none; fill: rgb(46, 86, 160);" id="path294"/>
      </g>
      <g id="g296" transform="scale(1.55934)">
        <path d="m 15733.8,4416.36 -233.8,-68.1 -17.8,61.24 c -3.1,10.52 3,21.61 13.5,24.69 l 58.8,17.06 107.7,31.42 29.1,8.41 c 2,0.57 4,0.83 5.9,0.76 8.5,-0.12 16.3,-5.77 18.8,-14.3 z m -506.5,-316.09 83.5,-286.92 c 16.2,-55.54 60,-95.94 112,-110.62 17.3,-4.88 35.5,-6.93 54,-5.71 0,0 0,0 0,0 h 0.1 c 11.5,0.77 23.1,2.69 34.6,6.09 l 653.4,190.15 c 85.5,24.88 135.1,115.17 110.2,200.72 l -83.5,286.92 c -24.9,85.55 -115.2,135.12 -200.7,110.24 l -225,-65.48 -17.7,61.25 c -8.2,28.28 -38,44.57 -66.3,36.36 l -24.7,-7.18 -136.8,-39.83 -34,-9.94 c -13.6,-3.91 -25,-13.08 -31.9,-25.59 -6.8,-12.5 -8.5,-27 -4.5,-40.59 l 17.9,-61.25 -130.4,-37.9 c -5.2,-1.47 -10.2,-3.2 -15,-5.19 l -0.1,-0.07 h -0.1 c -49.5,-19.88 -84.8,-62.78 -96.9,-112.42 v -0.06 c -6.4,-26.55 -6.2,-54.96 1.9,-82.98" style="fill-opacity: 1; fill-rule: nonzero; stroke: none; fill: rgb(63, 107, 188);" id="path298"/>
      </g>
      <g id="g300" transform="scale(1.50187)">
        <path d="m 16132.2,4775.51 c 0,0 -21,-176.18 18.5,-173.65 39.4,2.53 136.1,21.44 142.7,51.8 6.6,30.36 -74,171.92 -74,171.92 l -87.2,-50.07" style="fill:#ffb27d;fill-opacity:1;fill-rule:nonzero;stroke:none" id="path302"/>
      </g>
      <g id="g304" transform="scale(1.48706)">
        <path d="m 16298,4823.54 c 0,0 -30.5,-37.93 -33.2,-67.78 -2.6,-29.86 -17.2,-82.05 -3.5,-85.41 13.7,-3.36 38.7,64.96 38.7,64.96 l -2,88.23" style="fill:#ffb27d;fill-opacity:1;fill-rule:nonzero;stroke:none" id="path306"/>
      </g>
      <g id="g308" transform="scale(1.49564)">
        <path d="m 15572,6601.57 c 0,0 171.3,-41.05 306.8,-301.34 135.5,-260.29 242.5,-785.28 307.3,-923.88 64.6,-138.54 113.9,-554.35 113.9,-554.35 0,0 -10.1,-20.66 -45,-28.21 -27,-5.82 -54.8,-3.55 -54.8,-3.55 0,0 -254.8,408.19 -291.4,554.82 -19.8,79.36 -322.2,714.54 -322.2,714.54 l -14.6,541.97" style="fill:#ffffff;fill-opacity:1;fill-rule:nonzero;stroke:none" id="path310"/>
      </g>
      <path d="m 6407.3,3095.6 -38.4,276.7 161.34,134.8 50.82,-366.3 -173.76,-45.2" style="fill-opacity: 1; fill-rule: nonzero; stroke: none; fill: rgb(155, 75, 43);" id="path312"/>
      <path d="m 6943.1,2848.5 h -657.78 c 0,0 -15.76,100.3 18.59,176.3 32.93,73 84.16,118.1 88.83,174 41.8,-43.1 93.23,-70.8 188.32,-58 11.66,-18.9 75.22,-120 114.14,-147.9 42.99,-30.9 234.66,-19.9 247.9,-144.4" style="fill:#233862;fill-opacity:1;fill-rule:nonzero;stroke:none" id="path314"/>
      <path d="m 6810.94,6831.2 c -43.02,-346 -78.2,-672.3 -106.85,-976.3 -153.08,-1620.1 -123.04,-2610.3 -123.04,-2610.3 0,0 -11.06,-29.3 -105.97,-29.7 -53.64,-0.3 -106.18,11.4 -106.18,11.4 0,0 -342.75,1057.9 -316.29,1659.9 3.15,72.4 11.65,138.2 26.75,194.9 82.22,308 -304.27,1485.9 115.86,1924.6 420.05,438.6 635.5,-15.7 615.72,-174.5" style="fill-opacity: 1; fill-rule: nonzero; stroke: none; fill: rgb(147, 70, 249);" id="path316"/>
      <path d="m 6810.94,6831.2 c -43.02,-346 -78.2,-672.3 -106.85,-976.3 l -651.48,-968.7 c 3.15,72.4 11.65,138.2 26.75,194.9 82.22,308 -304.27,1485.9 115.86,1924.6 420.05,438.6 635.5,-15.7 615.72,-174.5" style="fill-opacity: 1; fill-rule: nonzero; stroke: none; fill: rgb(127, 43, 237);" id="path318"/>
      <path d="m 7328.63,10131.9 c 0,0 -15.85,79.1 -33.7,139.4 -7.9,26.7 47.16,202.1 85.26,223.6 38.11,21.6 137.35,-96.5 109.27,-187.1 -14.43,-46.6 -38.13,-198.2 -38.13,-198.2 l -122.7,22.3" style="fill-opacity: 1; fill-rule: nonzero; stroke: none; fill: rgb(155, 75, 43);" id="path320"/>
      <path d="m 7328.63,10131.9 c 0,0 -20.71,45.9 -39.42,53.3 -18.71,7.4 -38.76,82.4 -52.49,112.1 0,0 13.26,19.4 36.47,-5.6 14.16,-15.2 45.72,-60 45.72,-60 l 9.72,-99.8" style="fill-opacity: 1; fill-rule: nonzero; stroke: none; fill: rgb(155, 75, 43);" id="path322"/>
      <path d="m 4613.23,9866 c -4.03,-8.3 -9.64,-23.2 -14.63,-37.2 -0.08,3.8 -0.14,7.6 -0.18,11.3 -0.26,27.8 -104.24,179.4 -146.98,188.9 -42.76,9.5 -103.1,-132.5 -49.7,-211 27.43,-40.3 94.45,-178.3 94.45,-178.3 l 110.8,57.2 c 0,0 6.39,49.9 22.1,62.5 15.71,12.6 12.95,90.1 17.38,122.6 0,0 -18.37,14.7 -33.24,-16" style="fill-opacity: 1; fill-rule: nonzero; stroke: none; fill: rgb(155, 75, 43);" id="path324"/>
      <path d="m 5304.16,3178.6 c -9.3,88.6 -11.6,321.9 -11.6,321.9 0,0 237.71,76 228.96,23.8 -43.01,-256.5 -31.33,-383.5 -31.33,-383.5 l -96.13,-57.4 -89.9,95.2" style="fill-opacity: 1; fill-rule: nonzero; stroke: none; fill: rgb(155, 75, 43);" id="path326"/>
      <path d="m 6612.41,6847.7 c 0,0 -918.32,-2517.3 -1099.09,-3609.2 0,0 -41.88,-28.8 -120,-19.2 -88.6,10.8 -112.88,72.4 -112.88,72.4 0,0 -165.9,1308.7 163.84,1763 226.54,312.2 -97.71,1683.1 429.92,1793 527.64,109.9 738.21,0 738.21,0" style="fill-opacity: 1; fill-rule: nonzero; stroke: none; fill: rgb(147, 70, 249);" id="path328"/>
      <path d="m 6449.3,9269.2 c -0.01,0.1 -0.01,0.1 -0.01,0.1 -0.16,1.1 -0.42,2.1 -0.76,3.2 -5.37,22.2 -11.23,44 -17.54,65.6 -0.01,0.1 -0.01,0.1 -0.01,0.1 -19.22,66.2 -42.09,129.2 -66.76,184.9 -14.21,31.9 -28.92,61.5 -43.98,87.8 -2.3,4.1 -4.55,7.8 -6.71,11.7 l -0.11,0.1 c -35.49,59.7 -71.97,100.9 -104.88,113.6 -60.04,23.2 -126.83,16.8 -172.81,7.2 10.09,14.1 32.98,22 32.98,22 -29.43,0.1 -89.36,-38 -89.36,-38 -422.96,94.6 -398.24,-503.7 -369.44,-639.3 28.7,-135.6 -107.48,-201.5 -299.53,-340.3 C 4943.87,8483.2 4950,8202.5 4950,8202.5 c 3.31,-1.4 6.92,-3 10.66,-4.9 14.75,36.3 46.03,105.1 78.82,119.6 -0.93,-3.2 -27.6,-92.3 -35.17,-142.1 55.83,-30.8 133.09,-78.4 216.98,-132.2 0,0 0,0 0.11,-0.1 112.25,-71.8 236.14,-154.5 335.42,-221.6 -4.72,27.3 -9.39,66.3 -2.45,88.3 l 31.63,-98 4.15,-12.8 c 63.36,-42.9 113.35,-77.3 138.73,-94.9 2.6,-1.8 4.91,-3.4 6.98,-4.8 7.42,-5 11.39,-7.8 11.39,-7.8 -8.43,34.6 28.55,124.9 90.61,238.7 4.25,7.9 8.76,16 13.36,24.2 20.04,36 42.41,73.9 66.49,113 8.67,14.1 17.44,28.2 26.54,42.6 -0.01,0.1 0.08,0.1 0.08,0.1 7.28,11.6 14.65,23.1 22.28,34.8 l 0.07,0.1 c 17.99,27.8 36.59,55.8 55.57,83.8 49.16,72.6 101.21,144.7 152.65,210.8 74.69,96.3 147.98,180 209.35,234.8 2.01,4.1 3.91,8.3 5.62,12.6 9.61,22.3 16.98,47.1 22.69,72.4 1.78,7.5 3.36,15.2 4.75,22.8 15.3,80.5 15.6,160.4 15.4,179.3 4.91,-77.7 2.96,-136.4 -2.25,-180.7 -1.18,-9.8 -2.46,-18.8 -3.94,-27.2 h 0.02 c -3.27,-19 -7.04,-34.6 -11.11,-47.6 10.05,12.5 18.89,26.1 26.69,41.1 5.11,9.7 9.77,20 13.89,30.7 49.5,126.4 36.18,314.9 -6.71,491.7" style="fill:#163560;fill-opacity:1;fill-rule:nonzero;stroke:none" id="path330"/>
      <path d="m 6369.84,8663 c 1.42,-0.4 -118.41,-87.1 -220.06,-74.9 -95.61,11.4 -173.36,121.6 -172.13,122 37.76,13.5 41.02,68.7 6.02,298.3 l 18.11,-0.8 304.47,-14.6 c 0,0 7.11,-94.1 19.96,-181.8 10.75,-73.6 25.6,-142.8 43.63,-148.2" style="fill-opacity: 1; fill-rule: nonzero; stroke: none; fill: rgb(155, 75, 43);" id="path332"/>
      <path d="m 6306.25,8993 c 0,0 7.11,-94.1 19.96,-181.8 -166.2,-19.9 -276.14,118 -324.43,196.4 l 304.47,-14.6" style="fill-opacity: 1; fill-rule: nonzero; stroke: none; fill: rgb(110, 55, 25);" id="path334"/>
      <path d="m 5966.44,9035.2 c 0,0 -107.11,124.2 -145.36,238.3 -27.31,81.4 -30.83,397.8 287.44,399.5 0,0 91.84,4.6 185.45,-40.2 74.46,-35.7 186.78,-119.8 117.86,-406.6 l -14.77,-95.7 -430.62,-95.3" style="fill:#163560;fill-opacity:1;fill-rule:nonzero;stroke:none" id="path336"/>
      <path d="m 6849.31,6896 c 0,0 -396.21,-235.4 -893.66,-114.4 -5.86,1.5 -409.61,65.9 -409.61,65.9 6.93,19 59.11,330.9 65.94,348.3 88.25,227.8 249.54,1463.8 384.3,1524.8 34.41,-37.5 132.75,-63.1 216.92,-55.7 96.92,8.6 129.37,50.5 121.33,95.5 107.25,-50.7 189.66,-97.8 189.66,-97.8 98.03,-146.9 325.12,-1766.6 325.12,-1766.6" style="fill:#ffffff;fill-opacity:1;fill-rule:nonzero;stroke:none" id="path338"/>
      <path d="m 6373.87,8918.2 c 0,0 -390.62,-64.7 -427.17,179.2 -36.55,243.8 -111.58,399.7 136.27,451.4 247.86,51.6 310.37,-34.2 342.37,-112.6 32,-78.5 49.2,-494.9 -51.47,-518" style="fill-opacity: 1; fill-rule: nonzero; stroke: none; fill: rgb(155, 75, 43);" id="path340"/>
      <path d="m 6260.42,9581.3 c 0,0 -64.64,-302.1 -222.89,-368.9 -158.24,-66.8 -236.17,-33.3 -236.17,-33.3 0,0 111.3,119 111.46,297.9 0,0 246.47,228.4 347.6,104.3" style="fill:#163560;fill-opacity:1;fill-rule:nonzero;stroke:none" id="path342"/>
      <path d="m 6237.31,9554.1 c 0,0 89.57,-52 118.33,-111.2 28.76,-59.2 56.56,-185.8 93.18,-175.9 0,0 51.84,206.5 -55.3,303.1 -113.61,102.3 -156.21,-16 -156.21,-16" style="fill:#163560;fill-opacity:1;fill-rule:nonzero;stroke:none" id="path344"/>
      <path d="m 7454,10126.3 c -15.88,5.6 -39.3,18.8 -69.83,21.6 -27.2,2.4 -61.38,-6.5 -61.38,-6.5 0,0 -110.2,-685 -118.39,-721.3 -8.18,-36.3 -472.7,-559.6 -597.94,-557.5 -113.09,1.9 -247.07,-85.4 -271.93,-102.2 0,0 263.37,-556.9 276.5,-661.5 14.29,-113.8 150.63,-1866.8 150.63,-1866.8 0,0 -8.11,-81.5 144.26,-37.7 152.36,43.9 190.47,80.1 190.47,80.1 0,0 -139.96,1380.1 -169.32,1809.2 -3.94,57.6 -13.35,111 -26.74,160.2 -12.91,47.4 -2.73,98.1 26.22,137.8 192.63,264.5 496.84,692.9 513.79,784 24.9,133.8 13.66,960.6 13.66,960.6" style="fill:#2b478b;fill-opacity:1;fill-rule:nonzero;stroke:none" id="path346"/>
      <path d="m 5852.22,2848.5 h -657.78 c 0,0 -15.77,100.3 18.59,176.3 32.92,73 84.16,118.1 88.83,174 41.8,-43.1 93.23,-70.8 188.33,-58 11.65,-18.9 75.21,-120 114.13,-147.9 42.98,-30.9 234.66,-19.9 247.9,-144.4" style="fill:#233862;fill-opacity:1;fill-rule:nonzero;stroke:none" id="path348"/>
      <path d="m 6304.07,8044.8 c -22.16,136.4 -305.2,684.2 -305.2,684.2 0,0 -178.93,53.5 -296.7,10.8 -117.76,-42.6 -727.07,301.4 -746.6,333.1 -19.53,31.6 -345.88,639.7 -345.88,639.7 0,0 -27.06,15.7 -70.42,-6.9 -42.89,-22.3 -43.08,-66 -43.08,-66 0,0 251.87,-765.6 318.88,-884.1 40.41,-71.4 380.13,-320.1 643.52,-506.3 50.29,-35.5 76.7,-96.1 68.44,-157.1 -35.41,-261.8 -44.43,-409.3 -85.16,-858.5 -33.79,-372.7 -46.72,-1094.3 -46.72,-1094.3 0,0 294.74,-102 498.16,-115.5 203.42,-13.6 247.75,200.9 247.75,200.9 0,0 185.8,1679.7 163.01,1820" style="fill:#2b478b;fill-opacity:1;fill-rule:nonzero;stroke:none" id="path350"/>
      <path d="m 6245.87,9038.8 c 0,0 47.46,-27.9 103.49,-19.5 38.38,5.8 47.1,51.3 47.1,51.3 0,0 -26.68,8.4 -69.26,-0.2 -42.58,-8.5 -81.33,-31.6 -81.33,-31.6" style="fill:#ffffff;fill-opacity:1;fill-rule:nonzero;stroke:none" id="path352"/>
      <g id="g354" transform="scale(1.16597)">
        <path d="m 16057.4,11739.4 c 0,0 -156.7,278.6 0,335.3 156.7,56.6 227.7,4.4 235.1,-59.1 7.5,-63.4 -59.7,-313.5 -59.7,-313.5 l -175.4,37.3" style="fill:#ffb27d;fill-opacity:1;fill-rule:nonzero;stroke:none" id="path356"/>
      </g>
      <g id="g358" transform="scale(1.18887)">
        <path d="m 15871.4,9765.93 c -280.3,-50.51 -538,-73.94 -770.7,-79.14 -220.8,-4.98 -418.9,6.51 -592.3,26.65 -46.6,5.34 -91.4,11.35 -134.4,17.87 -453.7,68.82 -704.4,190.86 -704.4,190.86 0,0 414.7,868.03 749.7,834.73 393,-39.2 1058.9,-391.9 1125.1,-292.9 74.5,111.4 136.9,1067.1 136.9,1067.1 174.2,119.3 278.3,-6.5 278.3,-6.5 0,0 340.4,-1681.36 -88.2,-1758.67" style="fill-opacity: 1; fill-rule: nonzero; stroke: none; fill: rgb(147, 70, 249);" id="path360"/>
      </g>
      <g id="g362" transform="scale(1.1576)">
        <path d="m 16300,10029.7 c -287.8,-51.9 -552.5,-75.95 -791.5,-81.3 -226.7,-5.11 -430.2,6.69 -608.3,27.37 -107.4,341.53 -184.6,690.33 31.4,480.03 380.9,-370.9 1368.4,-426.1 1368.4,-426.1" style="fill-opacity: 1; fill-rule: nonzero; stroke: none; fill: rgb(127, 43, 237);" id="path364"/>
      </g>
      <g id="g366" transform="scale(1.06595)">
        <path d="m 15210.7,3075.38 c 0,0 -33.2,-384.92 48.2,-424.88 l 1041.1,2.06 c 0,0 0,120.18 -167.3,146.91 -167.1,26.65 -461,124.58 -510.7,342.61 -49.7,218.11 -411.3,-66.7 -411.3,-66.7" style="fill:#233862;fill-opacity:1;fill-rule:nonzero;stroke:none" id="path368"/>
      </g>
      <g id="g370" transform="scale(1.04555)">
        <path d="m 16286.9,7884.3 c -5.3,-256.52 -17.6,-521.16 -41.7,-759.03 -114.7,-1128.59 -154.9,-2492.28 -171.4,-2755.21 -28.6,-456.32 -118.7,-1185.41 -118.7,-1185.41 0,0 -178.8,-169.77 -527.5,-88.76 0,0 -288.7,1050.08 -353.3,2155.81 -0.9,18.18 -1.9,36.45 -2.8,54.62 -7.5,146.24 -15.4,313.33 -23.4,493.62 -53.1,1207.31 -110.7,3000.72 -110.7,3000.72 l 1331.9,312.76 c 0,0 30.7,-589.45 17.6,-1229.12" style="fill:#2a4e96;fill-opacity:1;fill-rule:nonzero;stroke:none" id="path372"/>
      </g>
      <g id="g374" transform="scale(1.04555)">
        <path d="m 16286.9,7884.3 c -337.6,-582.37 -981,-1655.4 -1238.8,-2084.36 -53.1,1207.31 -110.7,3000.72 -110.7,3000.72 l 1331.9,312.76 c 0,0 30.7,-589.45 17.6,-1229.12" style="fill:#233862;fill-opacity:1;fill-rule:nonzero;stroke:none" id="path376"/>
      </g>
      <path d="m 13502.4,9423 c 0,0 -226.6,-266.5 -247,-340.4 -20.4,-73.9 -56.7,-340.1 -37.2,-420.1 19.4,-80 170.1,223.1 224.9,255.4 54.8,32.4 -41.1,-120.5 -22.4,-146 18.7,-25.5 126.9,89.2 169.1,128.1 42.2,38.8 38,247.8 88.7,371.4 50.7,123.6 -176.1,151.6 -176.1,151.6" style="fill:#ffb27d;fill-opacity:1;fill-rule:nonzero;stroke:none" id="path378"/>
      <path d="m 13449.3,3744.4 c 0,0 -197.6,-180.2 -159,-308.3 38.5,-128.1 216.8,-213.5 240.9,-370 24.1,-156.6 120.4,-242 207.1,-242 86.8,0 413.5,0 413.5,0 0,0 63.8,110.2 -90.4,143.4 -154.1,33.2 -212.3,217.2 -202.6,387.9 9.6,170.8 -14.5,398.5 -14.5,398.5 l -327.6,75.9 -67.4,-85.4" style="fill:#233862;fill-opacity:1;fill-rule:nonzero;stroke:none" id="path380"/>
      <g id="g382" transform="scale(1.03012)">
        <path d="m 16300,8904.72 c 0,0 -1265.6,-2707.85 -1939.1,-3895.97 -673.4,-1188.12 -883.9,-1519.63 -883.9,-1519.63 0,0 -385.9,151.92 -420.9,255.6 0,0 257.5,2293.72 708.6,2852.88 254.8,315.89 554.2,1264.03 568.1,1595.65 14.1,331.61 309.7,1122.98 309.7,1122.98 L 16300,8904.72" style="fill:#2a4e96;fill-opacity:1;fill-rule:nonzero;stroke:none" id="path384"/>
      </g>
      <g id="g386" transform="scale(1.0806)">
        <path d="m 15891.2,8367.01 c 0,0 -479.8,-320.75 -1158.8,-290.95 -298,12.96 -889.1,97.45 -984.5,334.44 -22.4,55.71 -6,126.32 27.6,234.69 87.2,281.69 290.5,818.13 229.1,2007.51 -5.7,110.7 -2.6,214.7 8,312.2 63.9,585.8 399.7,932.8 724.2,1046.1 791.4,276.7 1055.2,-106.6 1055.2,-106.6 0,0 349.8,-277.1 402.6,-855.5 105.4,-1157.02 -303.4,-2681.89 -303.4,-2681.89" style="fill-opacity: 1; fill-rule: nonzero; stroke: none; fill: rgb(147, 70, 249);" id="path388"/>
      </g>
      <g id="g390" transform="scale(1.05046)">
        <path d="m 15398.2,12424 c 0,0 373.6,-227.2 778.7,-162.9 0,0 80.2,20.3 40.8,114.4 24.6,75.9 21.7,69 35.9,125.4 35.5,129.8 46.4,204.7 46.4,204.7 l -229.9,241.7 -217.8,230.9 c -60.2,-552 -454.1,-754.2 -454.1,-754.2" style="fill:#ffb27d;fill-opacity:1;fill-rule:nonzero;stroke:none" id="path392"/>
      </g>
      <g id="g394" transform="scale(1.05125)">
        <path d="m 15805.5,12959.1 c 0,0 125,-334.2 435.9,-467.6 35.5,129.7 58.6,265.4 58.6,265.4 l -242,180.7 -252.5,21.5" style="fill:#ed985f;fill-opacity:1;fill-rule:nonzero;stroke:none" id="path396"/>
      </g>
      <g id="g398" transform="scale(1.07896)">
        <path d="m 16120.7,12381.4 c 0,0 -694.2,-86.8 -743,339.8 -48.7,426.6 -171.2,702.8 270,776.2 441.2,73.4 546.1,-79.9 597.5,-218.4 51.5,-138.6 54.8,-864 -124.5,-897.6" style="fill:#ffb27d;fill-opacity:1;fill-rule:nonzero;stroke:none" id="path400"/>
      </g>
      <g id="g402" transform="scale(1.10798)">
        <path d="m 14761.4,13211.4 c -5.8,7.2 -19.6,13.4 -50.9,16.2 0,0 25.7,14.8 59.1,14.3 8.2,43.3 34.3,119.5 109.9,135.4 0,0 -41.1,-20 -48,-66.1 90,85.9 278.5,143.7 791.9,83.6 676.6,-79.2 436.5,-505.2 346.6,-553.7 -89.8,-48.5 -305.5,101.9 -469.7,95.1 -164.1,-6.8 -204.3,-242.2 -261,-272.5 -56.7,-30.4 -32.7,26.2 -106.6,63 -73.9,36.8 -85.7,-87.4 -67,-169.2 18.6,-81.8 -88.6,-184.6 -88.6,-184.6 0,0 0,0 -100.1,116.3 -100.1,116.2 -180.5,595.8 -129.2,695.5 4.5,8.8 9,17.7 13.6,26.7" style="fill:#2c3a64;fill-opacity:1;fill-rule:nonzero;stroke:none" id="path404"/>
      </g>
      <g id="g406" transform="scale(1.14374)">
        <path d="m 16300,12155.9 -1111.8,-9.9 -7.6,167.3 1108.3,85.9 11.1,-243.3" style="fill:#2a4e96;fill-opacity:1;fill-rule:nonzero;stroke:none" id="path408"/>
      </g>
      <g id="g410" transform="scale(1.20263)">
        <path d="m 16300,11534.1 -1151.2,-16.6 -13.2,289.2 1147.9,88.9 16.5,-361.5" style="fill:#2a4e96;fill-opacity:1;fill-rule:nonzero;stroke:none" id="path412"/>
      </g>
      <g id="g414" transform="scale(1.2599)">
        <path d="m 16300,10988.2 -926.7,-1.2 -16.9,372.7 922.9,84 20.7,-455.5" style="fill:#233862;fill-opacity:1;fill-rule:nonzero;stroke:none" id="path416"/>
      </g>
      <g id="g418" transform="scale(1.26485)">
        <path d="m 16249.5,10882.6 v 0 c 28.4,1.3 50.5,25.4 49.2,53.9 l -21.7,476.8 c -1.3,28.5 -25.4,50.5 -53.8,49.2 v 0 c -28.6,-1.3 -50.6,-25.4 -49.3,-53.9 l 21.7,-476.8 c 1.2,-28.5 25.4,-50.5 53.9,-49.2" style="fill:#233862;fill-opacity:1;fill-rule:nonzero;stroke:none" id="path420"/>
      </g>
      <g id="g422" transform="scale(1.06897)">
        <path d="m 16246.9,12957.4 v 0 c -30,-1.3 -55.3,21.9 -56.7,51.8 l -6.7,146.4 c -1.4,30 21.8,55.3 51.8,56.7 v 0 c 30,1.4 55.3,-21.8 56.7,-51.8 l 6.6,-146.4 c 1.4,-29.9 -21.8,-55.3 -51.7,-56.7" style="fill:#2a4e96;fill-opacity:1;fill-rule:nonzero;stroke:none" id="path424"/>
      </g>
      <path d="m 14885.8,9342 c 94.3,304.4 313.9,884.1 247.6,2169.4 -6.2,119.5 -2.8,232 8.6,337.2 h 0.1 c 281.4,24.2 711.7,-280 711.7,-280 0,0 -265,-1615.4 -968,-2226.6" style="fill-opacity: 1; fill-rule: nonzero; stroke: none; fill: rgb(127, 43, 237);" id="path426"/>
      <g id="g428" transform="scale(1.02483)">
        <path d="m 15783.2,12734.7 c 0,0 -704.2,-121.1 -1071.5,-569.4 -367.2,-448.4 -958.1,-1080.6 -1097.7,-1302 -139.7,-221.4 -527.5,-1728.07 -527.5,-1728.07 0,0 25.7,-48.4 132.6,-76.59 102.4,-27.04 176.6,14.83 176.6,14.83 0,0 513.8,879.25 707.2,1318.53 80.3,182.5 1469.7,905.2 1992,830.3 205.1,-29.4 -311.7,1512.4 -311.7,1512.4" style="fill-opacity: 1; fill-rule: nonzero; stroke: none; fill: rgb(147, 70, 249);" id="path430"/>
      </g>
      <g id="g432" transform="scale(1.16419)">
        <path d="m 16007.2,12228.5 c 0,0 133.3,-81.6 213.1,-47.1 79.7,34.5 72.7,66.1 72.7,66.1 0,0 -241,66.9 -285.8,-19" style="fill:#ffb27d;fill-opacity:1;fill-rule:nonzero;stroke:none" id="path434"/>
      </g>
      <g id="g436" transform="scale(1.04633)">
        <path d="m 16128.3,11991.9 c 0,0 -302.7,-1911 -2450.3,-2467.38 l -234,-461.52 411,-69.58 c 0,0 2445,708.35 2412,3032.28 l -138.7,-33.8" style="fill-opacity: 1; fill-rule: nonzero; stroke: none; fill: rgb(63, 107, 188);" id="path438"/>
      </g>
      <g id="g440" transform="scale(1.04422)">
        <path d="m 16113.8,12321.8 -99.3,-9.7 v -143.8 l 146.4,-152.1 139.1,33.8 v 199.6 l -100.1,72.2 h -86.1" style="fill-opacity: 1; fill-rule: nonzero; stroke: none; fill: rgb(46, 86, 160);" id="path442"/>
      </g>
      <g id="g444" transform="scale(1.03229)">
        <path d="m 15905.7,12849.4 c 0,0 -97.2,-22 -319.6,-206.7 0,0 221.1,-469.4 687.6,-525.6 0,0 -7.4,217.8 26.3,347.1 0,0 -369.8,132.4 -394.3,385.2" style="fill-opacity: 1; fill-rule: nonzero; stroke: none; fill: rgb(127, 43, 237);" id="path446"/>
      </g>
      <g id="g448" transform="scale(1.05329)">
        <path d="m 15975.1,12215.8 c 0,0 223.1,-118.5 239.6,-303.1 0,0 85.3,135.2 60.6,228.8 -24.8,93.5 -101.2,200.7 -101.2,200.7 0,0 7.6,-112.7 -199,-126.4" style="fill-opacity: 1; fill-rule: nonzero; stroke: none; fill: rgb(127, 43, 237);" id="path450"/>
      </g>
    </g>
  </g>
</svg>