<?xml version="1.0" encoding="utf-8"?>
<svg version="1.1" id="svg2" width="274.851px" height="200px" viewBox="0 0 1466.6667 1066.6667" xmlns="http://www.w3.org/2000/svg">
  <g id="g10" transform="matrix(1.3333333,0,0,-1.3333333,0,1066.6667)">
    <g id="g12" transform="scale(0.1)">
      <path d="M 11000,0 H 0 V 8000 H 11000 V 0" style="fill:#ffffff;fill-opacity:1;fill-rule:nonzero;stroke:none" id="path14"/>
      <path d="m 3131.06,1763.06 c -178.4,-2.85 -356.79,-5 -535.13,-5.54 -317.82,-0.95 -734.41,46.28 -971.62,-133.54 -119.45,-90.53 -80.14,-271.09 109.32,-303.09 53.63,-9.06 111.35,-8.07 161.64,-23.49 50.31,-15.42 90.16,-57.41 62.24,-89.48 -14.27,-16.39 -41.73,-25.18 -68.08,-32.06 -166.55,-43.56 -351.15,-49.08 -516.85,-94.09 -393.701,-106.95 -325.73,-321.899 32.19,-391.27 321.86,-62.391 679.8,-53.77 1011.65,-57.988 1942.12,-24.723 3889.48,-54.082 5820.84,29.258 416.52,17.98 830.63,40.671 1245.36,61.832 189.8,9.668 427.36,34.91 428.11,91.437 0.52,39.371 -124.78,68.731 -248.29,84.09 -216.29,26.91 -498.66,50.32 -457.78,138.361 14.91,32.11 85.31,61.57 183.1,76.63 75.53,11.63 162.42,14.7 244.3,21.7 81.89,7 165.84,19.85 200.27,42.75 92.72,61.69 -140.77,98.4 -305.12,104.03 -196.86,6.75 -357.36,50.1 -289.5,115.52 47.28,45.56 201.13,76.37 247.92,121.99 18.8,18.34 18.77,38.06 6.27,56.86 -124.94,187.83 -777.66,171.73 -1020.91,185.78 -450.01,26.02 -902.05,30.99 -1353.49,33.31 -1024.05,5.29 -2048.14,-3.53 -3071.99,-17.23 -304.7,-4.08 -609.58,-10.92 -914.45,-15.77" style="fill:#f1f2f2;fill-opacity:1;fill-rule:nonzero;stroke:none" id="path16"/>
      <path d="m 7745.39,5216.58 -110.53,121.48 46.6,52.65 92.96,-65.29 11.21,35.81 82.71,-116.23 -41.51,-61.72 -81.44,33.3" style="fill-opacity: 1; fill-rule: nonzero; stroke: none; fill: rgb(155, 75, 43);" id="path18"/>
      <path d="m 8701.44,5539 -280.98,-528.55 -585.75,313.06 -65.92,-133.56 671.22,-576.19 638.53,672.8 -377.1,252.44" style="fill-opacity: 1; fill-rule: nonzero; stroke: none; fill: rgb(174, 195, 255);" id="path20"/>
      <path d="m 4549.98,5002.93 96.43,114.82 -47.28,43.35 -83.45,-64.01 -12.85,30.88 -70.54,-108.31 43.07,-51.7 74.62,34.97" style="fill:#fcd2c0;fill-opacity:1;fill-rule:nonzero;stroke:none" id="path22"/>
      <path d="m 3249.92,4731.66 c 10.71,29.77 27.48,57.72 47.69,82.12 62.95,76.01 169.05,122.29 263.19,92.65 65.85,-20.74 222.97,-156.56 280.24,-195.08 0,0 161.85,86.45 305.47,173.27 19.8,11.96 294.14,184.03 297.38,179.73 l 80.2,-106.96 c 6.51,-8.63 -645.56,-549.98 -710.53,-609.13 -28,-25.51 -304.18,104.07 -345.61,118.74 -97.63,34.59 -221.8,55.25 -230.37,182.27 -1.9,28.07 2.83,55.94 12.34,82.39" style="fill-opacity: 1; fill-rule: nonzero; stroke: none; fill: rgb(42, 78, 150);" id="path24"/>
      <path d="m 3033.34,5252.32 c -2.6,-0.63 -5.18,-1.29 -7.73,-1.97 -122.77,-32.43 -238.33,-227.22 -304.9,-341.83 -171.83,-295.88 -268.23,-613.55 -318.03,-956.37 -26.81,-184.6 -45.63,-370.42 -60.75,-556.47 -4.17,-51.39 -11.68,-514.95 -35.62,-523.33 245.61,85.96 494.44,165.25 749.63,201.29 255.17,36.06 518.39,27.6 762.2,-59.17 -10.27,590.68 -53.6,1195.37 -149.13,1775.79 -11.42,69.43 -16.03,142.57 -37.04,209.52 -24.2,77.09 -70.51,104.29 -127.24,154.67 -19.44,17.27 -39.01,34.63 -61.05,47.63 -116.17,68.51 -281.29,82.12 -410.34,50.24" style="fill-opacity: 1; fill-rule: nonzero; stroke: none; fill: rgb(42, 78, 150);" id="path26"/>
      <path d="m 2523.57,3343.84 188.27,-1106.99 -52.72,-801.94 128.02,-37.64 105.43,741.68 227.67,1355.74 -596.67,-150.85" style="fill-opacity: 1; fill-rule: nonzero; stroke: none; fill: rgb(255, 178, 125);" id="path28"/>
      <path d="m 2787.14,1374.68 15.06,-82.84 -30.12,-158.15 -105.43,7.54 -22.59,233.45 15.06,37.64 128.02,-37.64" style="fill:#3b455a;fill-opacity:1;fill-rule:nonzero;stroke:none" id="path30"/>
      <path d="m 3555.25,3389.01 -45.18,-941.3 -222.62,-1317.85 h -129.1 l 42.97,1219.94 -180.73,1122.06 534.66,-82.85" style="fill-opacity: 1; fill-rule: nonzero; stroke: none; fill: rgb(255, 178, 125);" id="path32"/>
      <path d="m 3285.06,1152.32 166.25,-104.51 -19.65,-79.779 -302.82,59.799 23.21,115.2 133.01,9.29" style="fill:#3b455a;fill-opacity:1;fill-rule:nonzero;stroke:none" id="path34"/>
      <path d="m 3585.37,3283.59 7.53,-1091.93 -143.08,-737.99 -346.4,45.19 v 850.94 l -82.83,933.79 33.88,141.96 500.78,-44.07 30.12,-97.89" style="fill-opacity: 1; fill-rule: nonzero; stroke: none; fill: rgb(63, 107, 188);" id="path36"/>
      <path d="m 2982.93,2297.09 -97.89,-775.64 -301.22,37.65 60.24,737.99 -122.73,941.32 62.49,256.03 506.19,-68.89 -107.08,-1128.46" style="fill-opacity: 1; fill-rule: nonzero; stroke: none; fill: rgb(63, 107, 188);" id="path38"/>
      <path d="m 3557.35,3388.14 c -315.43,-12.23 -676.21,-28.47 -982.28,85.42 46.77,562.52 132.56,1011.51 329.25,1538.73 35.67,95.62 83.94,197.74 175.59,238.12 98.21,43.28 292.76,13.87 337.16,-96.82 64.97,-161.93 53.7,-406.72 71.17,-580.71 39.51,-393.7 61.83,-789.02 69.11,-1184.74" style="fill:#ffffff;fill-opacity:1;fill-rule:nonzero;stroke:none" id="path40"/>
      <path d="m 3023.51,5217.47 c 0,0 -256.25,-1380.89 -71.19,-1679.85 185.07,-298.96 265.81,-412.84 265.81,-412.84 L 2419.56,2919.7 c 0,0 119.92,1963.22 603.95,2297.77" style="fill-opacity: 1; fill-rule: nonzero; stroke: none; fill: rgb(42, 78, 150);" id="path42"/>
      <path d="m 7597.44,6228.77 c -47.68,21.23 -71.33,81.03 -42.79,131.04 51.66,90.54 96.71,179.69 41.71,280.88 -66.91,123.08 -232.51,168.66 -353.16,97.66 -148.78,-87.56 -130.44,-246.73 -50.16,-375.46 31.29,-50.17 7.97,-112.34 -40.82,-134.12 H 6561.4 v -8 -210.07 -365.82 c -18.69,-53.5 -84.18,-80.71 -136.72,-48 -128.77,80.21 -287.96,98.45 -375.43,-50.38 -70.92,-120.68 -25.26,-286.26 97.87,-353.09 101.22,-54.95 190.34,-9.85 280.85,41.87 52.11,29.77 114.75,2.81 133.43,-48.94 v -577.07 h 552.79 c 72.94,0 117.46,-80.22 78.85,-142.12 -80.28,-128.73 -98.62,-287.9 50.16,-375.46 120.65,-70.99 286.25,-25.42 353.16,97.66 55,101.19 9.95,190.34 -41.71,280.88 -35.36,61.97 9.34,139.04 80.68,139.04 h 545.56 v 567.56 c -15.03,56.61 -81.31,87.6 -135.89,56.42 -90.52,-51.72 -179.64,-96.82 -280.86,-41.87 -123.12,66.83 -168.79,232.41 -97.86,353.09 87.46,148.83 246.65,130.59 375.43,50.38 55.15,-34.35 124.63,-2.68 139.18,56.17 v 342.24 227.51 8 h -583.45" style="fill-opacity: 1; fill-rule: nonzero; stroke: none; fill: rgb(141, 207, 252);" id="path44"/>
      <path d="m 4933.09,6233.26 c -49.14,17.57 -77.24,75.42 -52.55,127.44 44.67,94.18 82.87,186.48 20.39,283.23 -76.01,117.68 -244.58,150.62 -359.52,70.72 -141.75,-98.53 -111.45,-255.87 -21.68,-378.17 34.98,-47.67 16.41,-111.42 -30.59,-136.82 l -589.14,-44.59 0.61,-7.98 15.85,-209.46 27.61,-364.78 c -14.6,-54.76 -77.85,-86.84 -132.7,-58.18 -134.47,70.26 -294.57,76.43 -370.56,-78.58 -61.61,-125.68 -3.58,-287.34 124.23,-344.69 105.09,-47.15 190.55,4.55 276.89,62.95 49.72,33.62 114.22,11.45 136.74,-38.74 l 43.56,-575.41 551.22,41.71 c 1.06,0.08 2.07,-0.03 3.13,0.02 l 34.8,2.64 c 47.01,25.39 65.57,89.15 30.58,136.82 -89.76,122.3 -120.06,279.64 21.69,378.17 114.93,79.9 283.51,46.95 359.51,-70.72 62.49,-96.75 24.3,-189.05 -20.39,-283.23 -24.67,-52.03 3.41,-109.87 52.56,-127.45 l 34.61,2.63 c 1.08,0.12 2.08,0.37 3.17,0.45 l 543.99,41.17 -42.83,565.94 c -18.09,63.02 -81.92,83.32 -139.77,46.01 -87.6,-56.51 -165.2,-106.79 -270.28,-59.64 -127.81,57.35 -192.45,215.7 -130.84,341.39 75.99,155 236.09,148.83 370.56,78.57 57.58,-30.09 124.48,6.73 134.55,66.5 l -25.83,341.28 -17.18,226.86 -0.6,7.97 -581.79,-44.03" style="fill-opacity: 1; fill-rule: nonzero; stroke: none; fill: rgb(183, 128, 255);" id="path46"/>
      <path d="M 8792.74,3744.65 V 3508.3 l -315.13,-1024.16 78.79,-1063.55 -196.96,-39.4 -315.12,1299.9 12.05,382.45 145.51,780 590.86,-98.89" style="fill-opacity: 1; fill-rule: nonzero; stroke: none; fill: rgb(42, 78, 150);" id="path48"/>
      <path d="M 8542.76,3464.8 8859.4,1298.31 h 143.93 l 90.9,1181.72 196.95,1181.73 -748.42,-196.96" style="fill-opacity: 1; fill-rule: nonzero; stroke: none; fill: rgb(42, 78, 150);" id="path50"/>
      <path d="m 8384.93,1389.77 -150.35,-159.13 43.43,-80.65 310.22,148.91 -57.13,117.89 -146.17,-27.02" style="fill:#3b455a;fill-opacity:1;fill-rule:nonzero;stroke:none" id="path52"/>
      <path d="m 8862.07,1297.63 -185.33,-116.52 21.89,-88.95 337.6,66.68 -25.88,128.42 -148.28,10.37" style="fill:#3b455a;fill-opacity:1;fill-rule:nonzero;stroke:none" id="path54"/>
      <path d="m 8408.54,6016.34 c 123.03,-9.05 238.07,91.98 359.17,66.89 78.73,-16.3 140.88,-86.13 164.91,-164.83 11.2,-36.69 15.16,-76.67 4.21,-113.15 -7.11,-23.67 -20.23,-45.01 -35.68,-63.97 -20.65,-25.34 -45.9,-46.41 -73.93,-62.58 15.4,-24.81 33.03,-48.24 52.66,-69.87 -56.75,-21.73 -113.48,-43.46 -170.22,-65.2 -12.54,32.61 -25.08,65.22 -37.62,97.82 -17.06,0.94 -34.06,3.37 -50.72,7.7 -100.74,26.13 -184.26,114.37 -206.73,218.38 -10.53,48.73 -8.5,99.12 -6.05,148.81" style="fill-opacity: 1; fill-rule: nonzero; stroke: none; fill: rgb(155, 75, 43);" id="path56"/>
      <path d="m 8439.61,5979.22 380.42,45.2 73.84,-290.59 107.43,85.25 -55.36,475.49 -536.89,11.56 -232.46,-136.37 9.84,-136.66 207.87,-139.93 45.31,86.05" style="fill:#3b455a;fill-opacity:1;fill-rule:nonzero;stroke:none" id="path58"/>
      <path d="m 8597.31,5507.45 468.82,185.98 c 0,0 166.61,-413.85 356.03,-1076.77 189.4,-662.93 -204.22,-1381.98 -204.22,-1381.98 0,0 -960,392.11 -1174.47,434.2 l 271.24,950.1 282.6,888.47" style="fill-opacity: 1; fill-rule: nonzero; stroke: none; fill: rgb(174, 195, 255);" id="path60"/>
      <path d="m 7650.44,4457.77 -169.12,7.63 0.11,72.42 116.97,20.42 -15.84,34.28 143.92,-24.16 10.05,-75.3 -86.09,-35.29" style="fill-opacity: 1; fill-rule: nonzero; stroke: none; fill: rgb(155, 75, 43);" id="path62"/>
      <path d="m 8709.93,5347.6 -285.91,-597.01 -743.53,-157.71 27.58,-148.4 919.11,-8.38 514.01,651.82 -431.26,259.68" style="fill-opacity: 1; fill-rule: nonzero; stroke: none; fill: rgb(174, 195, 255);" id="path64"/>
      <path d="m 3393.09,5562.27 c 25.39,-74.29 -11.33,-153.51 -43.6,-221.23 -13.18,-27.66 -33.97,-66.38 -11.45,-94.43 25.2,-31.39 80.04,-19.45 102.26,7.89 15.69,19.3 22.07,44.07 27.41,68.15 23.85,107.86 57.12,258.93 38.62,368.22 -14.84,87.62 -132.06,234.66 -234.03,168.5 -18.51,-12.03 -29.28,-32.33 -38.3,-52.14 -5.38,-11.84 -10.49,-24.18 -10.65,-37.12 -0.63,-51.6 47.72,-60.32 81.12,-84.88 41.18,-30.28 72.4,-75.52 88.62,-122.96" style="fill:#3b455a;fill-opacity:1;fill-rule:nonzero;stroke:none" id="path66"/>
      <path d="m 3238.46,5272.23 c 70.51,16.19 125.64,73.88 152.14,139.59 26.49,65.7 27.88,138.55 20.55,208.79 -24.38,233.71 -322.74,218.7 -423.77,39.58 -88.04,-156.11 46.04,-435.02 251.08,-387.96" style="fill-opacity: 1; fill-rule: nonzero; stroke: none; fill: rgb(255, 178, 125);" id="path68"/>
      <path d="m 3009.83,5550.93 c -14.69,-54.38 -17.12,-120.39 -14.39,-160.25 3.1,-45.43 25.36,-168.89 -59.62,-149.34 -70.87,16.32 -130.5,178.25 -153.05,236.16 -54.79,140.72 -68.77,288.63 15.54,418.63 32.86,50.67 78.68,95.37 136.17,116.66 86.45,32.01 236.77,44.89 324.8,7.73 95.94,-40.5 146.83,-161.59 86.47,-250 -64.92,-95.09 -215.62,-70.72 -296.84,-144.39 -18.02,-16.34 -30.59,-43.84 -39.08,-75.2" style="fill:#3b455a;fill-opacity:1;fill-rule:nonzero;stroke:none" id="path70"/>
      <path d="m 3242.34,5296.94 c -2.11,-17.77 -4.22,-35.53 -6.33,-53.31 -0.96,-8.14 1.63,-30.95 -4.49,-37.05 -3.18,-3.18 -8.32,-3.24 -12.87,-3.08 -13.02,0.44 -129.71,4.91 -129.12,12.68 1.59,20.86 3.63,41.34 8.07,61.53 3.59,16.32 2.91,46.32 11.02,59.21 20.8,-12.14 41.8,-18.89 65.47,-23.55 22.84,-4.49 45.76,-8.59 68.74,-12.3 -0.15,-1.37 -0.32,-2.75 -0.49,-4.13" style="fill-opacity: 1; fill-rule: nonzero; stroke: none; fill: rgb(255, 178, 125);" id="path72"/>
      <path d="m 3963.71,5416.28 83.08,142.94 -59.54,38.17 -78.57,-85.29 -19.78,31.12 -56.19,-130.98 56.54,-48.03 74.46,52.07" style="fill-opacity: 1; fill-rule: nonzero; stroke: none; fill: rgb(255, 178, 125);" id="path74"/>
      <path d="m 3618.91,5274.95 c 16.88,15.05 208.48,196.09 217.96,188.02 l 107.33,-101.06 c 16.31,-17.2 -324.77,-503.33 -357.31,-542.07 -71.64,-85.3 -190.69,-262.71 -190.69,-262.71 -96.41,-4.97 -369.42,-31.09 -465.89,-34.83 -38.85,-1.51 -123.7,-21.43 -156.81,-2.37 -42,24.18 -40.68,102.73 -33.42,142.24 14.88,81.05 61.38,155.87 127.46,205.11 23.73,17.67 50.44,32.36 79.6,37.47 30.04,5.27 60.83,0.13 90.9,-4.99 51,-8.7 143.97,-43.96 193.65,-27.78 43.94,14.31 88.4,87.64 118.49,121.16 44.39,49.45 88.2,99.42 133.54,148 31,33.23 91.31,121.11 135.19,133.81" style="fill-opacity: 1; fill-rule: nonzero; stroke: none; fill: rgb(42, 78, 150);" id="path76"/>
    </g>
  </g>
</svg>