<?xml version="1.0" encoding="UTF-8" standalone="no"?>
<svg
   xmlns:bx="https://boxy-svg.com"
   xmlns:dc="http://purl.org/dc/elements/1.1/"
   xmlns:cc="http://creativecommons.org/ns#"
   xmlns:rdf="http://www.w3.org/1999/02/22-rdf-syntax-ns#"
   xmlns:svg="http://www.w3.org/2000/svg"
   xmlns="http://www.w3.org/2000/svg"
   xmlns:sodipodi="http://sodipodi.sourceforge.net/DTD/sodipodi-0.dtd"
   xmlns:inkscape="http://www.inkscape.org/namespaces/inkscape"
   viewBox="0 0 350 150"
   version="1.1"
   id="svg43"
   sodipodi:docname="evidence_logo_black.svg"
   inkscape:version="1.0 (b51213c273, 2020-08-10)">
  <metadata
     id="metadata47">
    <rdf:RDF>
      <cc:Work
         rdf:about="">
        <dc:format>image/svg+xml</dc:format>
        <dc:type
           rdf:resource="http://purl.org/dc/dcmitype/StillImage" />
      </cc:Work>
    </rdf:RDF>
  </metadata>
  <sodipodi:namedview
     pagecolor="#ffffff"
     bordercolor="#666666"
     borderopacity="1"
     objecttolerance="10"
     gridtolerance="10"
     guidetolerance="10"
     inkscape:pageopacity="0"
     inkscape:pageshadow="2"
     inkscape:window-width="1856"
     inkscape:window-height="1053"
     id="namedview45"
     showgrid="false"
     inkscape:zoom="2.5371862"
     inkscape:cx="153.63515"
     inkscape:cy="62.951398"
     inkscape:window-x="64"
     inkscape:window-y="-10"
     inkscape:window-maximized="1"
     inkscape:current-layer="g41" />
  <defs
     id="defs32">
    <filter
       id="drop-shadow-filter-0"
       x="-500%"
       y="-500%"
       width="1000%"
       height="1000%"
       bx:preset="drop-shadow 1 0 0 10 0.667 rgba(0,0,0,0.3)">
      <feGaussianBlur
         in="SourceAlpha"
         stdDeviation="10"
         id="feGaussianBlur28" />
      <feOffset
         dx="0"
         dy="0"
         id="feOffset30" />
      <feComponentTransfer
         result="offsetblur"
         id="feComponentTransfer33">
        <feFuncA
           id="spread-ctrl"
           type="linear"
           slope="1.334" />
      </feComponentTransfer>
      <feFlood
         flood-color="rgba(0,0,0,0.3)"
         id="feFlood35" />
      <feComposite
         in2="offsetblur"
         operator="in"
         id="feComposite37" />
      <feMerge
         id="feMerge43">
        <feMergeNode
           id="feMergeNode39" />
        <feMergeNode
           in="SourceGraphic"
           id="feMergeNode41" />
      </feMerge>
    </filter>
    <filter
       id="filter-1"
       x="-500%"
       y="-500%"
       width="1000%"
       height="1000%"
       bx:preset="drop-shadow 1 0 0 10 0.667 rgba(0,0,0,0.3)">
      <feGaussianBlur
         in="SourceAlpha"
         stdDeviation="10"
         id="feGaussianBlur46" />
      <feOffset
         dx="0"
         dy="0"
         id="feOffset48" />
      <feComponentTransfer
         result="offsetblur"
         id="feComponentTransfer51">
        <feFuncA
           id="feFuncA-1"
           type="linear"
           slope="1.334" />
      </feComponentTransfer>
      <feFlood
         flood-color="rgba(0,0,0,0.3)"
         id="feFlood53" />
      <feComposite
         in2="offsetblur"
         operator="in"
         id="feComposite55" />
      <feMerge
         id="feMerge61">
        <feMergeNode
           id="feMergeNode57" />
        <feMergeNode
           in="SourceGraphic"
           id="feMergeNode59" />
      </feMerge>
    </filter>
    <filter
       id="filter-2"
       x="-500%"
       y="-500%"
       width="1000%"
       height="1000%"
       bx:preset="drop-shadow 1 0 0 10 0.667 rgba(0,0,0,0.3)">
      <feGaussianBlur
         in="SourceAlpha"
         stdDeviation="10"
         id="feGaussianBlur64" />
      <feOffset
         dx="0"
         dy="0"
         id="feOffset66" />
      <feComponentTransfer
         result="offsetblur"
         id="feComponentTransfer69">
        <feFuncA
           id="feFuncA-2"
           type="linear"
           slope="1.334" />
      </feComponentTransfer>
      <feFlood
         flood-color="rgba(0,0,0,0.3)"
         id="feFlood71" />
      <feComposite
         in2="offsetblur"
         operator="in"
         id="feComposite73" />
      <feMerge
         id="feMerge79">
        <feMergeNode
           id="feMergeNode75" />
        <feMergeNode
           in="SourceGraphic"
           id="feMergeNode77" />
      </feMerge>
    </filter>
  </defs>
  <g
     id="g41">
    <g
       id="layer1"
       transform="matrix(1, 0, 0, 1, 54.984375, -216.277527)"
       style="filter: none;">
      <g
         aria-label="evidence"
         id="text833"
         style="font-weight:300;font-size:80px;line-height:26.4584px;font-family:'Prodigy Sans';white-space:pre">
        <path
           d="m 4.4959993,273.91101 c 0,-11.2 -6.48,-18.8 -17.3600003,-18.8 -10.64,0 -18.64,7.84 -18.64,20.8 0,12.96 8.08,20.8 19.2,20.8 7.3600003,0 13.2800003,-3.52 16.1600003,-9.2 l -3.12,-1.84 c -2.48,4.72 -7.04,7.52 -13.2000003,7.52 -8.8,0 -14.8,-6.32 -15.04,-16.64 H 4.3359993 c 0.08,-0.64 0.16,-1.6 0.16,-2.64 z m -31.7600003,-0.88 c 0.88,-9.12 6.56,-14.4 14.32,-14.4 8.2400003,0 13.1200003,5.44 13.3600003,14.4 z"
           style="font-weight:300;font-size:80px;line-height:26.4584px;font-family:'Prodigy Sans';white-space:pre"
           id="path872" />
        <path
           d="m 25.818499,291.75101 -14.24,-35.84 H 7.0184993 l 16.7199997,40 h 4 l 16.72,-40 h -4.24 z"
           style="font-weight:300;font-size:80px;line-height:26.4584px;font-family:'Prodigy Sans';white-space:pre"
           id="path874" />
        <path
           d="m 52.122249,241.59101 c -2,0 -3.36,1.36 -3.36,3.36 0,2 1.36,3.36 3.36,3.36 2.08,0 3.44,-1.36 3.44,-3.36 0,-2 -1.36,-3.36 -3.44,-3.36 z m -1.92,14.32 v 40 h 4 v -40 z"
           style="font-weight:300;font-size:80px;line-height:26.4584px;font-family:'Prodigy Sans';white-space:pre"
           id="path876" />
        <path
           d="m 95.990999,264.71101 c -2.16,-6 -7.68,-9.6 -14.48,-9.6 -10.48,0 -18.56,7.6 -18.56,20.8 0,13.04 7.6,20.8 18.24,20.8 6.96,0 12.96,-3.76 15.04,-10.32 l 0.24,9.52 h 3.52 v -56.32 h -4 z m -14.24,28.48 c -9.04,0 -14.72,-6.56 -14.72,-17.28 0,-10.72 5.76,-17.28 14.88,-17.28 8.32,0 14.08,6.48 14.08,16.96 0,10.8 -5.84,17.6 -14.24,17.6 z"
           style="font-weight:300;font-size:80px;line-height:26.4584px;font-family:'Prodigy Sans';white-space:pre"
           id="path878" />
        <path
           d="m 144.65225,273.91101 c 0,-11.2 -6.48,-18.8 -17.36,-18.8 -10.64,0 -18.64,7.84 -18.64,20.8 0,12.96 8.08,20.8 19.2,20.8 7.36,0 13.28,-3.52 16.16,-9.2 l -3.12,-1.84 c -2.48,4.72 -7.04,7.52 -13.2,7.52 -8.8,0 -14.8,-6.32 -15.04,-16.64 h 31.84 c 0.08,-0.64 0.16,-1.6 0.16,-2.64 z m -31.76,-0.88 c 0.88,-9.12 6.56,-14.4 14.32,-14.4 8.24,0 13.12,5.44 13.36,14.4 z"
           style="font-weight:300;font-size:80px;line-height:26.4584px;font-family:'Prodigy Sans';white-space:pre"
           id="path880" />
        <path
           d="m 171.891,255.11101 c -6.8,0 -12.48,3.2 -14.96,8.88 l -0.24,-8.08 h -3.52 v 40 h 4 v -22.56 c 0,-9.36 6.72,-14.72 14.24,-14.72 6.88,0 11.68,3.84 11.68,12.64 v 24.64 h 4 v -25.92 c 0,-9.84 -6.4,-14.88 -15.2,-14.88 z"
           style="font-weight:300;font-size:80px;line-height:26.4584px;font-family:'Prodigy Sans';white-space:pre"
           id="path882" />
        <path
           d="m 214.411,255.11101 c -11.04,0 -19.04,7.84 -19.04,20.8 0,12.96 7.92,20.8 18.88,20.8 8.32,0 14.56,-4.48 16.64,-11.76 l -3.84,-1.28 c -1.36,5.92 -6.08,9.52 -12.88,9.52 -8.8,0 -14.72,-6.48 -14.72,-17.28 0,-10.8 6,-17.28 14.8,-17.28 6.48,0 10.8,3.2 12.56,9.04 l 3.76,-1.76 c -2.48,-6.8 -8.08,-10.8 -16.16,-10.8 z"
           style="font-weight:300;font-size:80px;line-height:26.4584px;font-family:'Prodigy Sans';white-space:pre"
           id="path884" />
        <path
           d="m 271.83975,273.91101 c 0,-11.2 -6.48,-18.8 -17.36,-18.8 -10.64,0 -18.64,7.84 -18.64,20.8 0,12.96 8.08,20.8 19.2,20.8 7.36,0 13.28,-3.52 16.16,-9.2 l -3.12,-1.84 c -2.48,4.72 -7.04,7.52 -13.2,7.52 -8.8,0 -14.8,-6.32 -15.04,-16.64 h 31.84 c 0.08,-0.64 0.16,-1.6 0.16,-2.64 z m -31.76,-0.88 c 0.88,-9.12 6.56,-14.4 14.32,-14.4 8.24,0 13.12,5.44 13.36,14.4 z"
           style="font-weight:300;font-size:80px;line-height:26.4584px;font-family:'Prodigy Sans';white-space:pre"
           id="path886" />
      </g>
    </g>
    <g
       style=""
       transform="matrix(0.227896, 0, 0, 0.227896, 34.400726, 33.790627)"
       id="g39">
      <circle
         style="filter:url(#drop-shadow-filter-0);fill:#80adff;fill-opacity:1"
         cx="311.829"
         cy="332.406"
         r="75"
         id="circle84" />
      <circle
         style="filter:url(#filter-1);fill:#b780ff;fill-opacity:1"
         cx="195"
         cy="250"
         r="75"
         transform="matrix(0, -1, 1, 0, -80.671768, 527.406311)"
         id="circle86" />
      <circle
         style="filter:url(#filter-2);fill:#e580ff;fill-opacity:1"
         cx="26.827"
         cy="332.406"
         r="75"
         id="circle88" />
    </g>
  </g>
</svg>
