<?xml version="1.0" encoding="utf-8"?>
<svg viewBox="0 0 500 500" xmlns="http://www.w3.org/2000/svg">
  <circle style="fill: rgb(183, 128, 255);" cx="250" cy="250" r="250"/>
  <path d="M 98.901 279.625 L 93.931 279.625 L 96.231 260.855 L 88.871 260.855 L 88.871 255.615 L 96.871 255.615 L 98.531 241.995 L 90.711 241.995 L 90.711 236.665 L 99.171 236.665 L 101.291 219.825 L 106.171 219.825 L 104.051 236.665 L 116.291 236.665 L 118.491 219.825 L 123.371 219.825 L 121.161 236.665 L 128.611 236.665 L 128.611 241.995 L 120.611 241.995 L 118.951 255.615 L 126.771 255.615 L 126.771 260.855 L 118.311 260.855 L 116.011 279.625 L 111.131 279.625 L 113.341 260.855 L 101.201 260.855 L 98.901 279.625 Z M 103.501 241.995 L 101.841 255.615 L 113.991 255.615 L 115.641 241.995 L 103.501 241.995 Z M 158.881 279.625 L 139.651 279.625 L 139.651 219.275 L 157.591 219.275 C 160.658 219.275 163.465 219.552 166.011 220.105 C 168.558 220.652 170.735 221.508 172.541 222.675 C 174.348 223.842 175.758 225.362 176.771 227.235 C 177.785 229.102 178.291 231.355 178.291 233.995 C 178.291 237.002 177.541 239.715 176.041 242.135 C 174.535 244.555 172.341 246.225 169.461 247.145 L 169.461 247.515 C 173.141 248.188 176.115 249.722 178.381 252.115 C 180.655 254.508 181.791 257.792 181.791 261.965 C 181.791 264.905 181.238 267.478 180.131 269.685 C 179.025 271.898 177.461 273.738 175.441 275.205 C 173.415 276.678 170.991 277.785 168.171 278.525 C 165.351 279.258 162.255 279.625 158.881 279.625 Z M 147.291 225.345 L 147.291 244.945 L 156.211 244.945 C 161.365 244.945 165.075 244.055 167.341 242.275 C 169.615 240.495 170.751 238.072 170.751 235.005 C 170.751 231.512 169.568 229.028 167.201 227.555 C 164.841 226.082 161.301 225.345 156.581 225.345 L 147.291 225.345 Z M 147.291 250.825 L 147.291 273.555 L 157.771 273.555 C 162.985 273.555 167.035 272.588 169.921 270.655 C 172.801 268.722 174.241 265.732 174.241 261.685 C 174.241 257.945 172.831 255.202 170.011 253.455 C 167.191 251.702 163.111 250.825 157.771 250.825 L 147.291 250.825 Z M 209.563 279.625 L 201.743 279.625 C 201.99 274.105 202.483 269.045 203.223 264.445 C 203.957 259.845 204.983 255.475 206.303 251.335 C 207.623 247.195 209.31 243.192 211.363 239.325 C 213.417 235.465 215.883 231.512 218.763 227.465 L 189.513 227.465 L 189.513 220.925 L 227.323 220.925 L 227.323 225.625 C 223.83 230.038 220.993 234.268 218.813 238.315 C 216.633 242.362 214.9 246.488 213.613 250.695 C 212.327 254.895 211.393 259.342 210.813 264.035 C 210.227 268.722 209.81 273.918 209.563 279.625 Z M 254.184 280.725 C 251.424 280.725 248.864 280.328 246.504 279.535 C 244.144 278.735 242.12 277.615 240.434 276.175 C 238.747 274.735 237.41 273.032 236.424 271.065 C 235.444 269.105 234.954 266.958 234.954 264.625 C 234.954 262.725 235.277 260.962 235.924 259.335 C 236.564 257.715 237.39 256.245 238.404 254.925 C 239.417 253.605 240.584 252.438 241.904 251.425 C 243.224 250.412 244.587 249.538 245.994 248.805 L 245.994 248.435 C 243.847 246.902 241.947 245.048 240.294 242.875 C 238.634 240.695 237.804 238.042 237.804 234.915 C 237.804 232.642 238.234 230.585 239.094 228.745 C 239.954 226.905 241.12 225.328 242.594 224.015 C 244.067 222.695 245.814 221.665 247.834 220.925 C 249.86 220.192 252.07 219.825 254.464 219.825 C 257.037 219.825 259.337 220.208 261.364 220.975 C 263.384 221.742 265.114 222.815 266.554 224.195 C 268 225.575 269.107 227.232 269.874 229.165 C 270.64 231.098 271.024 233.198 271.024 235.465 C 271.024 236.998 270.76 238.472 270.234 239.885 C 269.714 241.292 269.07 242.608 268.304 243.835 C 267.537 245.062 266.68 246.165 265.734 247.145 C 264.78 248.132 263.844 248.962 262.924 249.635 L 262.924 250.005 C 264.21 250.738 265.467 251.582 266.694 252.535 C 267.92 253.482 269.01 254.555 269.964 255.755 C 270.91 256.948 271.677 258.312 272.264 259.845 C 272.844 261.378 273.134 263.125 273.134 265.085 C 273.134 267.298 272.674 269.355 271.754 271.255 C 270.834 273.155 269.547 274.812 267.894 276.225 C 266.234 277.632 264.24 278.735 261.914 279.535 C 259.58 280.328 257.004 280.725 254.184 280.725 Z M 258.324 247.605 C 260.284 245.832 261.8 243.962 262.874 241.995 C 263.947 240.035 264.484 237.982 264.484 235.835 C 264.484 232.888 263.597 230.418 261.824 228.425 C 260.044 226.432 257.527 225.435 254.274 225.435 C 251.514 225.435 249.244 226.295 247.464 228.015 C 245.69 229.728 244.804 232.028 244.804 234.915 C 244.804 236.695 245.17 238.212 245.904 239.465 C 246.637 240.725 247.634 241.845 248.894 242.825 C 250.154 243.805 251.594 244.678 253.214 245.445 C 254.84 246.212 256.544 246.932 258.324 247.605 Z M 254.364 275.115 C 257.804 275.115 260.58 274.165 262.694 272.265 C 264.807 270.365 265.864 267.882 265.864 264.815 C 265.864 262.915 265.437 261.288 264.584 259.935 C 263.724 258.588 262.557 257.408 261.084 256.395 C 259.61 255.382 257.907 254.462 255.974 253.635 C 254.047 252.808 252.04 251.965 249.954 251.105 C 247.62 252.698 245.674 254.555 244.114 256.675 C 242.547 258.788 241.764 261.195 241.764 263.895 C 241.764 265.548 242.087 267.052 242.734 268.405 C 243.374 269.752 244.26 270.932 245.394 271.945 C 246.534 272.958 247.87 273.738 249.404 274.285 C 250.937 274.838 252.59 275.115 254.364 275.115 Z M 299.814 280.725 C 293.861 280.725 289.231 278.088 285.924 272.815 C 282.611 267.542 280.954 259.968 280.954 250.095 C 280.954 240.222 282.611 232.708 285.924 227.555 C 289.231 222.402 293.861 219.825 299.814 219.825 C 305.701 219.825 310.301 222.402 313.614 227.555 C 316.927 232.708 318.584 240.222 318.584 250.095 C 318.584 259.968 316.927 267.542 313.614 272.815 C 310.301 278.088 305.701 280.725 299.814 280.725 Z M 299.814 274.655 C 301.527 274.655 303.074 274.182 304.454 273.235 C 305.834 272.282 307.031 270.808 308.044 268.815 C 309.057 266.822 309.841 264.275 310.394 261.175 C 310.947 258.082 311.224 254.388 311.224 250.095 C 311.224 245.802 310.947 242.122 310.394 239.055 C 309.841 235.988 309.057 233.488 308.044 231.555 C 307.031 229.622 305.834 228.195 304.454 227.275 C 303.074 226.355 301.527 225.895 299.814 225.895 C 298.094 225.895 296.531 226.355 295.124 227.275 C 293.711 228.195 292.497 229.622 291.484 231.555 C 290.471 233.488 289.691 235.988 289.144 239.055 C 288.591 242.122 288.314 245.802 288.314 250.095 C 288.314 258.682 289.371 264.922 291.484 268.815 C 293.604 272.708 296.381 274.655 299.814 274.655 Z M 338.544 279.625 L 330.904 279.625 L 330.904 219.275 L 365.684 219.275 L 365.684 225.715 L 338.544 225.715 L 338.544 246.135 L 361.544 246.135 L 361.544 252.575 L 338.544 252.575 L 338.544 279.625 Z M 383.989 279.625 L 376.349 279.625 L 376.349 219.275 L 411.129 219.275 L 411.129 225.715 L 383.989 225.715 L 383.989 246.135 L 406.989 246.135 L 406.989 252.575 L 383.989 252.575 L 383.989 279.625 Z" style="fill: rgb(255, 255, 255); white-space: pre;"/>
</svg>