<?xml version="1.0" encoding="utf-8"?>
<svg viewBox="0 0 48 35" width="24px" height="24px" xmlns="http://www.w3.org/2000/svg">
  <path fill="#b780ff" d="M 41.455 4.41 C 41.455 4.41 36.453 0.495 30.545 0.046 L 30.013 1.111 C 35.354 2.418 37.804 4.291 40.364 6.591 C 35.951 4.339 31.594 2.228 24 2.228 C 16.406 2.228 12.049 4.339 7.636 6.591 C 10.196 4.291 13.111 2.211 17.987 1.111 L 17.455 0.046 C 11.257 0.632 6.545 4.41 6.545 4.41 C 6.545 4.41 0.959 12.51 0 28.41 C 5.631 34.904 14.182 34.955 14.182 34.955 L 15.97 32.571 C 12.935 31.517 9.507 29.633 6.545 26.228 C 10.078 28.901 15.409 31.682 24 31.682 C 32.591 31.682 37.922 28.901 41.455 26.228 C 38.493 29.633 35.065 31.517 32.03 32.571 L 33.818 34.955 C 33.818 34.955 42.369 34.904 48 28.41 C 47.041 12.51 41.455 4.41 41.455 4.41 Z M 16.909 24.046 C 14.8 24.046 13.091 22.092 13.091 19.682 C 13.091 17.273 14.8 15.319 16.909 15.319 C 19.018 15.319 20.727 17.273 20.727 19.682 C 20.727 22.092 19.018 24.046 16.909 24.046 Z M 31.091 24.046 C 28.982 24.046 27.273 22.092 27.273 19.682 C 27.273 17.273 28.982 15.319 31.091 15.319 C 33.2 15.319 34.909 17.273 34.909 19.682 C 34.909 22.092 33.2 24.046 31.091 24.046 Z"/>
</svg>