<?xml version="1.0" encoding="UTF-8" standalone="no"?>
<svg
   xmlns:bx="https://boxy-svg.com"
   xmlns:dc="http://purl.org/dc/elements/1.1/"
   xmlns:cc="http://creativecommons.org/ns#"
   xmlns:rdf="http://www.w3.org/1999/02/22-rdf-syntax-ns#"
   xmlns:svg="http://www.w3.org/2000/svg"
   xmlns="http://www.w3.org/2000/svg"
   xmlns:sodipodi="http://sodipodi.sourceforge.net/DTD/sodipodi-0.dtd"
   xmlns:inkscape="http://www.inkscape.org/namespaces/inkscape"
   viewBox="0 0 405 150"
   version="1.1"
   id="svg43"
   sodipodi:docname="polyphene_logo_black.svg">
  <metadata
     id="metadata47">
    <rdf:RDF>
      <cc:Work
         rdf:about="">
        <dc:format>image/svg+xml</dc:format>
        <dc:type
           rdf:resource="http://purl.org/dc/dcmitype/StillImage" />
      </cc:Work>
    </rdf:RDF>
  </metadata>
  <sodipodi:namedview
     pagecolor="#ffffff"
     bordercolor="#666666"
     borderopacity="1"
     objecttolerance="10"
     gridtolerance="10"
     guidetolerance="10"
     inkscape:pageopacity="0"
     inkscape:pageshadow="2"
     inkscape:window-width="640"
     inkscape:window-height="480"
     id="namedview45" />
  <defs
     id="defs32">
    <filter
       id="drop-shadow-filter-0"
       x="-500%"
       y="-500%"
       width="1000%"
       height="1000%"
       bx:preset="drop-shadow 1 0 0 10 0.667 rgba(0,0,0,0.3)">
      <feGaussianBlur
         in="SourceAlpha"
         stdDeviation="10"
         id="feGaussianBlur28" />
      <feOffset
         dx="0"
         dy="0"
         id="feOffset30" />
      <feComponentTransfer
         result="offsetblur"
         id="feComponentTransfer33">
        <feFuncA
           id="spread-ctrl"
           type="linear"
           slope="1.334" />
      </feComponentTransfer>
      <feFlood
         flood-color="rgba(0,0,0,0.3)"
         id="feFlood35" />
      <feComposite
         in2="offsetblur"
         operator="in"
         id="feComposite37" />
      <feMerge
         id="feMerge43">
        <feMergeNode
           id="feMergeNode39" />
        <feMergeNode
           in="SourceGraphic"
           id="feMergeNode41" />
      </feMerge>
    </filter>
    <filter
       id="filter-1"
       x="-500%"
       y="-500%"
       width="1000%"
       height="1000%"
       bx:preset="drop-shadow 1 0 0 10 0.667 rgba(0,0,0,0.3)">
      <feGaussianBlur
         in="SourceAlpha"
         stdDeviation="10"
         id="feGaussianBlur46" />
      <feOffset
         dx="0"
         dy="0"
         id="feOffset48" />
      <feComponentTransfer
         result="offsetblur"
         id="feComponentTransfer51">
        <feFuncA
           id="feFuncA-1"
           type="linear"
           slope="1.334" />
      </feComponentTransfer>
      <feFlood
         flood-color="rgba(0,0,0,0.3)"
         id="feFlood53" />
      <feComposite
         in2="offsetblur"
         operator="in"
         id="feComposite55" />
      <feMerge
         id="feMerge61">
        <feMergeNode
           id="feMergeNode57" />
        <feMergeNode
           in="SourceGraphic"
           id="feMergeNode59" />
      </feMerge>
    </filter>
    <filter
       id="filter-2"
       x="-500%"
       y="-500%"
       width="1000%"
       height="1000%"
       bx:preset="drop-shadow 1 0 0 10 0.667 rgba(0,0,0,0.3)">
      <feGaussianBlur
         in="SourceAlpha"
         stdDeviation="10"
         id="feGaussianBlur64" />
      <feOffset
         dx="0"
         dy="0"
         id="feOffset66" />
      <feComponentTransfer
         result="offsetblur"
         id="feComponentTransfer69">
        <feFuncA
           id="feFuncA-2"
           type="linear"
           slope="1.334" />
      </feComponentTransfer>
      <feFlood
         flood-color="rgba(0,0,0,0.3)"
         id="feFlood71" />
      <feComposite
         in2="offsetblur"
         operator="in"
         id="feComposite73" />
      <feMerge
         id="feMerge79">
        <feMergeNode
           id="feMergeNode75" />
        <feMergeNode
           in="SourceGraphic"
           id="feMergeNode77" />
      </feMerge>
    </filter>
  </defs>
  <g
     transform="translate(-0.3125,-0.140621)"
     id="g41">
    <g
       id="layer1"
       transform="translate(54.984375,-216.27753)">
      <g
         aria-label="polyphene"
         id="text833"
         style="font-weight:300;font-size:80px;line-height:26.4584px;font-family:'Prodigy Sans';white-space:pre">
        <path
           d="m -9.4240007,255.11101 c -7.5200003,0 -13.2000003,3.84 -15.5200003,10 l -0.24,-9.2 h -3.52 v 55.52 h 4 v -24.16 c 2.4,5.84 7.84,9.44 14.8800003,9.44 10.4,0 18.16,-7.76 18.16,-20.8 0,-13.04 -7.44,-20.8 -17.76,-20.8 z m -0.9600003,38.08 c -8.48,0 -14.32,-6.72 -14.32,-17.28 0,-10.56 6,-17.28 14.4,-17.28 8.9600003,0 14.5600003,6.56 14.5600003,17.28 0,10.72 -5.68,17.28 -14.6400003,17.28 z"
           style="font-weight:300;font-size:80px;line-height:26.4584px;font-family:'Prodigy Sans';white-space:pre"
           id="path49" />
        <path
           d="m 33.397249,255.11101 c -11.2,0 -19.12,7.84 -19.12,20.8 0,12.96 7.92,20.8 19.12,20.8 11.28,0 19.12,-7.84 19.12,-20.8 0,-12.96 -7.84,-20.8 -19.12,-20.8 z m 0,3.44 c 9.12,0 15.04,6.56 15.04,17.36 0,10.8 -5.92,17.36 -15.04,17.36 -9.04,0 -15.04,-6.56 -15.04,-17.36 0,-10.8 6,-17.36 15.04,-17.36 z"
           style="font-weight:300;font-size:80px;line-height:26.4584px;font-family:'Prodigy Sans';white-space:pre"
           id="path51" />
        <path
           d="m 60.975999,239.59101 v 47.2 c 0,6.8 2.96,9.92 8.64,9.92 2.24,0 4.24,-0.48 5.84,-1.28 l -0.8,-3.52 c -1.28,0.72 -2.56,1.12 -4.64,1.12 -3.2,0 -5.04,-1.76 -5.04,-6.72 v -46.72 z"
           style="font-weight:300;font-size:80px;line-height:26.4584px;font-family:'Prodigy Sans';white-space:pre"
           id="path53" />
        <path
           d="m 92.544749,291.27101 -14.64,-35.36 h -4.56 l 17.2,39.92 -2.16,5.2 c -2.4,5.76 -5.04,7.12 -8.48,7.12 -2.48,0 -4.88,-0.8 -6.8,-2.08 l -1.28,3.6 c 2.16,1.44 5.2,2.24 8,2.24 5.36,0 9.12,-2.48 12.16,-9.92 l 19.040001,-46.08 h -4.32 z"
           style="font-weight:300;font-size:80px;line-height:26.4584px;font-family:'Prodigy Sans';white-space:pre"
           id="path55" />
        <path
           d="m 136.04475,255.11101 c -7.52,0 -13.2,3.84 -15.52,10 l -0.24,-9.2 h -3.52 v 55.52 h 4 v -24.16 c 2.4,5.84 7.84,9.44 14.88,9.44 10.4,0 18.16,-7.76 18.16,-20.8 0,-13.04 -7.44,-20.8 -17.76,-20.8 z m -0.96,38.08 c -8.48,0 -14.32,-6.72 -14.32,-17.28 0,-10.56 6,-17.28 14.4,-17.28 8.96,0 14.56,6.56 14.56,17.28 0,10.72 -5.68,17.28 -14.64,17.28 z"
           style="font-weight:300;font-size:80px;line-height:26.4584px;font-family:'Prodigy Sans';white-space:pre"
           id="path57" />
        <path
           d="m 166.546,295.91101 v -22.56 c 0,-9.36 6.72,-14.8 14.24,-14.8 6.88,0 11.68,3.92 11.68,12.64 v 24.72 h 4 v -26 c 0,-9.76 -6.4,-14.8 -15.2,-14.8 -6.88,0 -12.4,3.28 -14.72,8.96 v -24.48 h -4 v 56.32 z"
           style="font-weight:300;font-size:80px;line-height:26.4584px;font-family:'Prodigy Sans';white-space:pre"
           id="path59" />
        <path
           d="m 240.746,273.91101 c 0,-11.2 -6.48,-18.8 -17.36,-18.8 -10.64,0 -18.64,7.84 -18.64,20.8 0,12.96 8.08,20.8 19.2,20.8 7.36,0 13.28,-3.52 16.16,-9.2 l -3.12,-1.84 c -2.48,4.72 -7.04,7.52 -13.2,7.52 -8.8,0 -14.8,-6.32 -15.04,-16.64 h 31.84 c 0.08,-0.64 0.16,-1.6 0.16,-2.64 z m -31.76,-0.88 c 0.88,-9.12 6.56,-14.4 14.32,-14.4 8.24,0 13.12,5.44 13.36,14.4 z"
           style="font-weight:300;font-size:80px;line-height:26.4584px;font-family:'Prodigy Sans';white-space:pre"
           id="path61" />
        <path
           d="m 267.98475,255.11101 c -6.8,0 -12.48,3.2 -14.96,8.88 l -0.24,-8.08 h -3.52 v 40 h 4 v -22.56 c 0,-9.36 6.72,-14.72 14.24,-14.72 6.88,0 11.68,3.84 11.68,12.64 v 24.64 h 4 v -25.92 c 0,-9.84 -6.4,-14.88 -15.2,-14.88 z"
           style="font-weight:300;font-size:80px;line-height:26.4584px;font-family:'Prodigy Sans';white-space:pre"
           id="path63" />
        <path
           d="m 327.46475,273.91101 c 0,-11.2 -6.48,-18.8 -17.36,-18.8 -10.64,0 -18.64,7.84 -18.64,20.8 0,12.96 8.08,20.8 19.2,20.8 7.36,0 13.28,-3.52 16.16,-9.2 l -3.12,-1.84 c -2.48,4.72 -7.04,7.52 -13.2,7.52 -8.8,0 -14.8,-6.32 -15.04,-16.64 h 31.84 c 0.08,-0.64 0.16,-1.6 0.16,-2.64 z m -31.76,-0.88 c 0.88,-9.12 6.56,-14.4 14.32,-14.4 8.24,0 13.12,5.44 13.36,14.4 z"
           style="font-weight:300;font-size:80px;line-height:26.4584px;font-family:'Prodigy Sans';white-space:pre"
           id="path65" />
      </g>
    </g>
    <g
       transform="matrix(0.227896,0,0,0.227896,34.400726,33.790627)"
       id="g39">
      <path
         id="circle84"
         style="fill:#80adff;fill-opacity:1;filter:url(#drop-shadow-filter-0)"
         d="m 386.82901,332.40601 a 75,75 0 0 1 -75,75 75,75 0 0 1 -75,-75 75,75 0 0 1 75,-75 75,75 0 0 1 75,75 z" />
      <path
         id="circle86"
         style="fill:#b780ff;fill-opacity:1;filter:url(#filter-1)"
         transform="rotate(-90,223.36727,304.03904)"
         d="m 270,250 a 75,75 0 0 1 -75,75 75,75 0 0 1 -75,-75 75,75 0 0 1 75,-75 75,75 0 0 1 75,75 z" />
      <path
         id="circle88"
         style="fill:#e580ff;fill-opacity:1;filter:url(#filter-2)"
         d="m 101.827,332.40601 a 75,75 0 0 1 -75,75 75,75 0 0 1 -75,-75 75,75 0 0 1 75,-75 75,75 0 0 1 75,75 z" />
    </g>
  </g>
</svg>
