<?xml version="1.0" encoding="utf-8"?>
<svg viewBox="0 0 1000 703.014" width="885.917px" height="622.8px" xmlns="http://www.w3.org/2000/svg">
  <path style="fill: rgb(183, 128, 255); fill-opacity: 0.12;" d="M 720.567 42.123 C 644.55 18.378 553.271 15.168 456.145 21.586 C 361.226 27.858 271.374 59.092 186.589 115.289 C 90.399 179.046 29.214 286.868 67.214 446.458 C 97.601 574.075 234.946 656.226 415.07 685.208 C 572.091 710.473 725.267 667.686 874.6 556.848 C 976.446 481.256 983.292 354.607 895.137 176.902 C 861.438 108.971 805.816 68.751 720.567 42.123 Z"/>
  <g transform="matrix(1, 0, 0, 1, 61.826004, 22.498486)">
    <polygon points="456.841 365.976 395.656 365.976 395.656 367.95 405.198 367.95 405.198 386.7 407.172 386.7 407.172 367.95 444.338 367.95 444.338 386.7 446.312 386.7 446.312 367.95 456.841 367.95 456.841 365.976" fill="#3f3d56"/>
    <polygon points="479.539 317.62 463.749 317.62 463.749 333.409 471.069 333.409 471.069 386.613 473.043 386.613 473.043 333.409 479.539 333.409 479.539 317.62" fill="#3f3d56"/>
    <rect x="395.776" y="360.071" width="61.185" height="1.974" fill="#3f3d56"/>
    <rect x="395.776" y="355.137" width="61.185" height="1.974" fill="#3f3d56"/>
    <rect x="395.776" y="350.203" width="61.185" height="1.974" fill="#3f3d56"/>
    <path d="M 613.752 392.389 L 611.778 392.389 C 611.778 298.794 535.633 222.649 442.038 222.649 C 348.443 222.649 272.298 298.794 272.298 392.389 L 270.324 392.389 C 270.324 297.706 347.355 220.675 442.038 220.675 C 536.722 220.675 613.752 297.706 613.752 392.389 Z" fill="#3f3d56"/>
    <circle cx="156.591" cy="178.958" r="161.352" fill="#b780ff"/>
    <path d="M 276.615 71.188 C 325.444 185.407 232.316 309.652 108.985 294.83 C 69.925 290.135 33.925 271.333 7.755 241.958 C 56.579 356.18 210.742 374.716 285.25 275.323 C 331.303 213.889 327.691 128.513 276.615 71.188 Z" opacity="0.2"/>
    <polygon points="157.035 178.958 157.478 178.958 165.457 636.417 148.613 636.417 157.035 178.958" fill="#3f3d56"/>
    <rect x="329.056" y="537.545" width="7.979" height="30.143" transform="matrix(0.46586, 0.884859, -0.884859, 0.46586, 505.05426, -120.514587)" fill="#3f3d56"/>
    <circle cx="750.516" cy="247.413" r="130.593" fill="#b780ff"/>
    <path d="M 847.66 160.187 C 887.18 252.632 811.805 353.193 711.985 341.196 C 680.371 337.396 651.234 322.178 630.052 298.403 C 669.569 390.851 794.344 405.854 854.649 325.407 C 891.922 275.684 888.999 206.584 847.66 160.187 Z" opacity="0.2"/>
    <polygon points="750.875 247.412 751.234 247.412 757.692 617.666 744.059 617.666 750.875 247.412" fill="#3f3d56"/>
    <rect x="920.953" y="560.707" width="6.458" height="24.397" transform="matrix(0.46586, 0.884859, -0.884859, 0.46586, 838.756836, -632.749329)" fill="#3f3d56"/>
    <circle cx="365.147" cy="339.31" r="20.558" fill="#b780ff"/>
    <path d="M 380.44 325.579 C 386.661 340.132 374.795 355.962 359.081 354.074 C 354.104 353.476 349.518 351.08 346.183 347.337 C 352.404 361.891 372.047 364.252 381.54 351.588 C 387.408 343.761 386.947 332.883 380.44 325.579 Z" opacity="0.2"/>
    <polygon points="365.204 339.31 365.26 339.31 366.277 397.596 364.131 397.596 365.204 339.31" fill="#3f3d56"/>
    <rect x="528.328" y="490.575" width="1.017" height="3.841" transform="matrix(0.46586, 0.884859, -0.884859, 0.46586, 556.435486, -325.875305)" fill="#3f3d56"/>
    <circle cx="555.118" cy="273.049" r="52.631" fill="#b780ff"/>
    <path d="M 594.268 237.896 C 610.196 275.153 579.818 315.681 539.589 310.846 C 526.848 309.314 515.105 303.181 506.569 293.599 C 522.494 330.858 572.781 336.904 597.085 304.483 C 612.107 284.444 610.929 256.595 594.268 237.896 Z" opacity="0.2"/>
    <polygon points="555.263 273.049 555.407 273.049 558.01 422.268 552.515 422.268 555.263 273.049" fill="#3f3d56"/>
    <rect x="720.414" y="471.542" width="2.603" height="9.832" transform="matrix(0.46586, 0.884859, -0.884859, 0.46586, 645.269653, -505.111237)" fill="#3f3d56"/>
    <path d="M 192.763 613.644 C 192.763 613.644 193.444 599.365 207.415 601.024" fill="#3f3d56"/>
    <circle cx="188.815" cy="593.063" r="6.992" fill="#b780ff"/>
    <rect x="187.678" y="604.838" width="1.974" height="13.816" fill="#3f3d56"/>
    <path d="M 242.106 581.078 C 242.106 581.078 242.787 566.798 256.758 568.458" fill="#3f3d56"/>
    <circle cx="238.158" cy="560.497" r="6.992" fill="#b780ff"/>
    <rect x="237.021" y="572.271" width="1.974" height="13.816" fill="#3f3d56"/>
    <path d="M 390.845 470.593 C 390.845 470.593 391.386 459.252 402.482 460.57" fill="#3f3d56"/>
    <circle cx="387.709" cy="454.247" r="5.554" fill="#b780ff"/>
    <rect x="386.806" y="463.598" width="1.568" height="10.973" fill="#3f3d56"/>
    <path d="M 607.954 435.066 C 607.954 435.066 608.495 423.725 619.591 425.043" fill="#3f3d56"/>
    <circle cx="604.819" cy="418.72" r="5.554" fill="#b780ff"/>
    <rect x="603.915" y="428.072" width="1.568" height="10.973" fill="#3f3d56"/>
    <path d="M 400.713 500.199 C 400.713 500.199 401.255 488.857 412.351 490.176" fill="#3f3d56"/>
    <circle cx="397.578" cy="483.853" r="5.554" fill="#b780ff"/>
    <rect x="396.674" y="493.204" width="1.568" height="10.973" fill="#3f3d56"/>
    <path d="M 377.029 521.91 C 377.029 521.91 377.57 510.568 388.666 511.887" fill="#3f3d56"/>
    <circle cx="373.893" cy="505.563" r="5.554" fill="#b780ff"/>
    <rect x="372.99" y="514.915" width="1.568" height="10.973" fill="#3f3d56"/>
    <path d="M 641.507 453.817 C 641.507 453.817 642.049 442.475 653.145 443.793" fill="#3f3d56"/>
    <circle cx="638.372" cy="437.47" r="5.554" fill="#b780ff"/>
    <rect x="637.468" y="446.822" width="1.568" height="10.973" fill="#3f3d56"/>
    <path d="M 321.764 478.488 C 321.764 478.488 322.306 467.146 333.402 468.465" fill="#3f3d56"/>
    <circle cx="318.629" cy="462.142" r="5.554" fill="#b780ff"/>
    <rect x="317.725" y="471.493" width="1.568" height="10.973" fill="#3f3d56"/>
    <path d="M 578.348 422.237 C 578.348 422.237 578.89 410.895 589.986 412.214" fill="#3f3d56"/>
    <circle cx="575.213" cy="405.891" r="5.554" fill="#b780ff"/>
    <rect x="574.309" y="415.242" width="1.568" height="10.973" fill="#3f3d56"/>
    <path d="M 106.906 616.605 C 106.906 616.605 107.587 602.325 121.558 603.985" fill="#3f3d56"/>
    <circle cx="102.958" cy="596.024" r="6.992" fill="#b780ff"/>
    <rect x="101.821" y="607.798" width="1.974" height="13.816" fill="#3f3d56"/>
    <path d="M 786.853 612.657 C 786.853 612.657 787.535 598.378 801.505 600.037" fill="#3f3d56"/>
    <circle cx="782.906" cy="592.076" r="6.992" fill="#b780ff"/>
    <rect x="781.768" y="603.851" width="1.974" height="13.816" fill="#3f3d56"/>
    <path d="M 729.615 579.104 C 729.615 579.104 730.297 564.824 744.267 566.484" fill="#3f3d56"/>
    <circle cx="725.668" cy="558.523" r="6.992" fill="#b780ff"/>
    <rect x="724.53" y="570.297" width="1.974" height="13.816" fill="#3f3d56"/>
    <path d="M 721.72 629.434 C 721.72 629.434 722.402 615.154 736.372 616.814" fill="#3f3d56"/>
    <circle cx="717.773" cy="608.853" r="6.992" fill="#b780ff"/>
    <rect x="716.635" y="620.627" width="1.974" height="13.816" fill="#3f3d56"/>
    <path d="M 118.266 640.091 C 118.266 640.091 429.127 558.182 426.167 474.299 C 420.739 451.107 383.238 445.186 383.238 445.186 C 383.238 445.186 294.421 433.344 342.777 404.725 C 391.133 376.106 523.372 383.014 523.372 383.014 C 523.372 383.014 387.186 404.725 447.384 416.567 C 495.74 419.528 557.913 432.357 557.913 432.357 C 557.913 432.357 684.231 459.002 701.994 524.135 C 719.758 589.268 704.955 639.598 704.955 639.598 Z" fill="#e6e6e6"/>
    <path d="M 456.848 640.411 L 455.683 638.784 C 457.328 637.608 458.948 636.439 460.543 635.276 L 461.721 636.893 C 460.119 638.058 458.495 639.231 456.848 640.411 Z" fill="#fff"/>
    <path d="M 471.357 629.737 L 470.15 628.143 C 473.382 625.696 476.564 623.234 479.61 620.826 L 480.851 622.394 C 477.794 624.811 474.599 627.282 471.357 629.737 Z M 490.181 614.837 L 488.903 613.298 C 492.031 610.7 495.09 608.088 497.994 605.538 L 499.314 607.04 C 496.396 609.603 493.323 612.227 490.181 614.837 Z M 508.213 598.968 L 506.844 597.509 C 509.829 594.71 512.707 591.907 515.398 589.177 L 516.822 590.582 C 514.113 593.329 511.216 596.151 508.213 598.968 Z M 525.071 581.828 L 523.583 580.492 C 526.325 577.437 528.919 574.378 531.292 571.399 L 532.856 572.645 C 530.459 575.654 527.84 578.744 525.071 581.828 Z M 540.024 562.961 L 538.372 561.834 C 540.697 558.426 542.795 555.025 544.606 551.724 L 546.36 552.687 C 544.517 556.044 542.386 559.501 540.024 562.961 Z M 551.524 541.747 L 549.663 541.016 C 551.113 537.356 552.249 533.579 553.058 529.726 L 555.017 530.129 C 554.186 534.094 553.017 537.98 551.524 541.747 Z M 554.194 518.05 C 554.135 514.163 553.595 510.298 552.586 506.544 L 554.517 506.022 C 555.569 509.936 556.132 513.965 556.194 518.017 Z M 548.211 495.748 C 546.311 492.318 544.082 489.081 541.555 486.084 L 543.088 484.8 C 545.699 487.898 548.003 491.242 549.965 494.787 Z M 533.291 477.643 C 530.319 475.025 527.205 472.572 523.965 470.296 L 525.119 468.663 C 528.42 470.982 531.591 473.48 534.617 476.147 Z M 513.942 463.859 C 510.671 461.936 507.141 460.017 503.455 458.156 L 504.355 456.371 C 508.081 458.251 511.647 460.19 514.956 462.134 Z M 492.645 453.045 C 489.164 451.498 485.456 449.941 481.624 448.417 L 482.364 446.559 C 486.22 448.092 489.952 449.66 493.458 451.216 Z M 470.41 444.166 C 466.847 442.874 463.037 441.547 459.089 440.224 L 459.723 438.328 C 463.687 439.657 467.513 440.988 471.092 442.285 Z M 447.679 436.519 C 444.193 435.419 440.441 434.262 436.207 432.98 L 436.787 431.066 C 441.028 432.35 444.788 433.51 448.28 434.611 Z M 424.7 429.526 C 420.654 428.316 416.796 427.16 413.185 426.047 L 413.774 424.135 C 417.38 425.248 421.232 426.402 425.273 427.61 Z M 401.716 422.338 C 397.868 421.069 394.106 419.554 390.452 417.804 L 391.351 416.017 C 394.926 417.728 398.606 419.208 402.37 420.448 Z M 386.613 409.228 L 385.187 407.826 C 387.01 405.973 390.617 404.161 396.212 402.284 L 396.848 404.18 C 391.631 405.929 388.187 407.628 386.613 409.228 Z M 408.289 400.922 L 407.806 398.981 C 411.265 398.12 415.205 397.218 419.518 396.302 L 419.933 398.259 C 415.643 399.17 411.726 400.066 408.289 400.922 Z M 431.659 395.904 L 431.284 393.939 C 434.969 393.235 438.938 392.505 443.081 391.771 L 443.431 393.74 C 439.296 394.473 435.336 395.201 431.659 395.904 Z M 455.228 391.709 L 454.898 389.736 C 458.667 389.104 462.611 388.458 466.729 387.797 L 467.046 389.772 C 462.931 390.432 458.991 391.078 455.228 391.709 Z" fill="#fff"/>
    <path d="M 479.105 387.874 L 478.799 385.897 C 480.743 385.596 482.722 385.293 484.734 384.986 L 485.035 386.962 C 483.023 387.269 481.047 387.573 479.105 387.874 Z" fill="#fff"/>
    <path d="M 523.369 184.725 L 532.453 177.459 C 525.396 176.68 522.496 180.529 521.309 183.576 C 515.796 181.287 509.793 184.287 509.793 184.287 L 527.97 190.886 C 527.053 188.437 525.457 186.3 523.369 184.725 Z" fill="#3f3d56"/>
    <path d="M 354.615 240.976 L 363.7 233.71 C 356.643 232.932 353.743 236.781 352.556 239.827 C 347.042 237.538 341.04 240.538 341.04 240.538 L 359.217 247.137 C 358.3 244.688 356.704 242.551 354.615 240.976 Z" fill="#3f3d56"/>
    <path d="M 399.024 124.527 L 408.109 117.261 C 401.051 116.482 398.152 120.331 396.965 123.378 C 391.451 121.088 385.449 124.089 385.449 124.089 L 403.626 130.687 C 402.709 128.238 401.113 126.101 399.024 124.527 Z" fill="#3f3d56"/>
    <path d="M 497.784 448.048 C 497.784 448.048 489.915 448.048 489.041 452.857 C 488.166 457.666 486.855 510.124 487.729 516.681 C 488.603 523.239 488.603 521.927 488.603 521.927 C 488.603 521.927 486.86 534.388 490.792 534.933 C 494.724 535.479 494.724 520.616 494.724 520.616 L 497.784 467.283 Z" fill="#9e616a"/>
    <path d="M 531.882 448.048 C 531.882 448.048 539.75 448.048 540.625 452.857 C 541.499 457.666 542.81 510.124 541.936 516.681 C 541.062 523.239 541.062 521.927 541.062 521.927 C 541.062 521.927 542.805 534.388 538.873 534.933 C 534.942 535.479 534.942 520.616 534.942 520.616 L 531.882 467.283 Z" fill="#9e616a"/>
    <path d="M 496.472 630.778 L 492.975 630.778 C 488.629 630.778 485.106 634.301 485.106 638.647 L 485.106 638.647 L 506.527 638.647 L 506.527 628.592 L 496.472 628.592 Z" fill="#2f2e41"/>
    <path d="M 530.133 630.778 L 533.63 630.778 C 537.976 630.778 541.499 634.301 541.499 638.647 L 541.499 638.647 L 520.078 638.647 L 520.078 628.592 L 530.133 628.592 Z" fill="#2f2e41"/>
    <circle cx="511.335" cy="426.628" r="11.366" fill="#9e616a"/>
    <path d="M 508.712 432.748 C 508.712 432.748 507.401 447.174 505.652 448.485 C 503.904 449.797 524.013 447.611 524.013 447.611 C 524.013 447.611 517.018 437.119 518.33 433.622 C 519.641 430.125 508.712 432.748 508.712 432.748 Z" fill="#9e616a"/>
    <path d="M 534.504 448.048 C 534.504 448.048 510.461 437.994 494.724 448.048 C 494.724 448.048 490.789 458.103 493.849 463.786 C 496.909 469.469 501.718 483.02 496.909 492.201 C 492.101 501.381 497.346 497.446 497.346 497.446 C 497.346 497.446 491.226 521.927 490.352 541.162 C 489.478 560.396 492.975 629.467 495.598 629.904 C 498.221 630.341 506.527 631.215 507.401 629.904 C 508.275 628.592 514.395 537.227 514.395 537.227 C 514.395 537.227 517.018 630.778 519.641 630.778 C 522.264 630.778 529.259 630.778 530.57 628.592 C 531.882 626.407 542.81 542.036 538.876 524.55 C 534.942 507.064 532.319 498.321 532.319 498.321 C 532.319 498.321 537.127 495.261 535.816 493.512 C 534.504 491.763 527.947 472.966 531.007 469.906 C 534.067 466.846 534.504 448.048 534.504 448.048 Z" fill="#2f2e41"/>
    <circle cx="518.548" cy="419.777" r="18.36" fill="#2f2e41"/>
    <path d="M 530.013 410.586 C 523.587 409.076 519.479 402.784 520.682 396.293 C 520.628 396.481 520.578 396.671 520.532 396.863 C 518.36 406.133 527.038 414.279 536.152 411.525 C 540.377 410.248 543.601 406.817 544.614 402.521 C 544.659 402.329 544.698 402.137 544.734 401.945 C 542.92 408.292 536.44 412.096 530.013 410.586 Z" fill="#2f2e41"/>
    <circle cx="530.761" cy="403.993" r="8.985" fill="#2f2e41"/>
  </g>
</svg>