<?xml version="1.0" encoding="UTF-8"?><svg id="Layer_1" xmlns="http://www.w3.org/2000/svg" viewBox="0 0 500 148.67"><defs><style>.cls-1{fill:#fff;}.cls-2{fill:#269b85;}.cls-3{fill:#e0e0e0;}.cls-4{fill:#4050a0;}.cls-5{fill:#40c1a8;}.cls-6{fill:none;}.cls-7{fill:#161616;}.cls-8{fill:#b4f9a7;}.cls-9{fill:#78b3f9;}</style></defs><g><path class="cls-7" d="M161.57,47.93c0-14.14,10.09-24.91,26.01-24.91,7.07,0,14.41,2.06,17.84,5.01v12.08h-.89c-3.36-2.95-9.4-4.94-14.48-4.94-8.58,0-14.69,5.28-14.69,12.83s6.25,12.56,14.69,12.56c5.08,0,11.12-1.99,14.48-4.94h.89v12.08c-3.5,2.95-10.91,5.01-17.84,5.01-14.96,0-26.01-9.95-26.01-24.78Z"/><path class="cls-7" d="M255.3,71.88h-13.86l-1.24-7.69c-.89-5.35-4.19-7.89-8.44-7.89h-5.28v15.58h-13.52V23.84h23.2c11.46,0,18.74,7.14,18.74,16.61,0,4.94-2.81,9.33-7.07,11.87,2.68,1.78,5.08,5.15,5.97,10.57l1.51,8.99Zm-21.82-24.98c4.94,0,7.62-2.4,7.62-6.04s-2.68-6.11-7.62-6.11h-7v12.15h7Z"/><path class="cls-7" d="M259.96,47.86c0-14.28,11.26-24.84,25.8-24.84s25.94,10.43,25.94,24.84-11.32,24.84-25.94,24.84-25.8-10.5-25.8-24.84Zm37.95,0c0-7.34-5.22-12.7-12.15-12.7s-12.01,5.42-12.01,12.7,4.94,12.7,12.01,12.7,12.15-5.42,12.15-12.7Z"/><path class="cls-7" d="M371.05,23.84h14.96v.96l-19.28,47.08h-6.52l-11.32-24.29-11.39,24.29h-6.52l-19.28-47.08v-.96h14.96l10.09,24.23,10.57-21.48h3.16l10.57,21.48,10.02-24.23Z"/><path class="cls-7" d="M409.26,23.84c14.82,0,24.5,9.61,24.5,24.02s-9.95,24.02-24.5,24.02h-18.67V23.84h18.67Zm-.69,36.37c6.93,0,11.39-5.01,11.39-12.35s-4.6-12.35-11.39-12.35h-4.46v24.7h4.46Z"/><path class="cls-7" d="M161.57,105.79c0-14.14,10.09-24.91,26.01-24.91,7.07,0,14.41,2.06,17.84,5.01v12.08h-.89c-3.36-2.95-9.4-4.94-14.48-4.94-8.58,0-14.69,5.28-14.69,12.83s6.25,12.56,14.69,12.56c5.08,0,11.12-1.99,14.48-4.94h.89v12.08c-3.5,2.95-10.91,5.01-17.84,5.01-14.96,0-26.01-9.95-26.01-24.78Z"/><path class="cls-7" d="M210.49,105.72c0-14.28,11.26-24.84,25.8-24.84s25.94,10.43,25.94,24.84-11.32,24.84-25.94,24.84-25.8-10.5-25.8-24.84Zm37.95,0c0-7.34-5.22-12.7-12.15-12.7s-12.01,5.42-12.01,12.7,4.94,12.7,12.01,12.7,12.15-5.42,12.15-12.7Z"/><path class="cls-7" d="M298.6,81.7h13.52v48.04h-2.4l-27.11-22.44v22.44h-13.52v-48.04h2.26l27.25,23.74v-23.74Z"/><path class="cls-7" d="M350.81,81.7h13.52v48.04h-2.4l-27.11-22.44v22.44h-13.52v-48.04h2.26l27.25,23.74v-23.74Z"/><path class="cls-7" d="M406.59,93.37h-19.56v7.48h15.65v10.09l-15.65,.07v7.07h19.56v11.67h-33.08v-48.04h33.08v11.67Z"/><path class="cls-7" d="M410.83,105.79c0-14.14,10.09-24.91,26.01-24.91,7.07,0,14.41,2.06,17.84,5.01v12.08h-.89c-3.36-2.95-9.4-4.94-14.48-4.94-8.58,0-14.69,5.28-14.69,12.83s6.25,12.56,14.69,12.56c5.08,0,11.12-1.99,14.48-4.94h.89v12.08c-3.5,2.95-10.91,5.01-17.84,5.01-14.96,0-26.01-9.95-26.01-24.78Z"/><path class="cls-7" d="M496.33,81.7v12.15h-12.01v35.89h-13.52v-35.89h-11.94v-12.15h37.47Z"/></g><g><g><path class="cls-9" d="M86.03,101.65c-3.01-.01-9.04-.52-8.86,7.09s4.59,16.65,7.53,19.8c2.94,3.15,9.21,4.62,13.12,0s3.81-3.95,7.06-10.1c3.25-6.15,5.91-7.42,1.06-10.32-4.84-2.9-14.02-7.27-19.91-6.46Z"/><path class="cls-4" d="M87.97,46.89c3.57-2.19,8.9-8.47,10.53-12.9s2.23-17.6-6.28-19.95c-8.51-2.35-17.86,2.38-22.6,3.21-4.74,.84-23.52,1.54-27.03,2.22-3.51,.68-12.12,2.28-15.39,11.23-3.28,8.96,3.51,14.29,6.56,15.92s8.33,1.95,8.92-1.2c.59-3.15,2.57-6.92,7.08-12.34,4.51-5.42,21.16-9.09,27.69-1.9,6.53,7.19,6.47,15.7,6.47,15.7h4.03Z"/><path class="cls-5" d="M89.36,135.38c-22.17,5.34-40.86,14.01-63.76-10.72C2.69,99.93,17,56.51,42.08,47.24c4.37-14.7,17.84-22.77,26.75-20.43,8.9,2.34,15.08,10.79,14.93,15.35-.15,4.56,1.51,6.66,4.86,4.43,3.35-2.24,7.58-8.56,9.82-5.07,2.23,3.49,2.27,8.98,1.09,12.93l12.42,8.82s-.54,1.3,5.46-.2c6-1.51,9.52-4.3,15.68-.37,6.16,3.93,1.94,6.5,7.43,7.87,5.49,1.36,5.97,8.34,5.38,13.59-.6,5.25-1.79,9.65-6.81,10.95-5.02,1.3-8.06,4.94-6.9,6.95,1.17,2.01,.46,12.02-9.63,11.71-10.1-.3-23.18-10.55-23.18-10.55l-17.12-.46s-4.15-.05-3.99,3.41c.17,3.46-5.81,15.72,11.08,29.23Z"/><path class="cls-1" d="M55.63,69.8c-10.68,4.4-18.16,17.64-16.85,37.09,1.28,19.04,19.07,33.76,41.91,28.54l6.73-1.33s-8.01-5.7-8.52-15.55c-.5-9.85-.68-13.72-.68-13.72,0,0,1.04-2.64,5.77-2.31,4.72,.33,13.37-.8,18.22,2.33,4.86,3.14,3.87,6.28,14.87,8.27,10.99,1.98,14.34,.93,14.84-4.8,.5-5.73,4.53-15.95-3.07-16.56-7.59-.61-11.9,5.43-14.07,3-2.17-2.43-3.17-9.14-6.94-7.4s-11.06,6.79-12.36,2.65c-1.3-4.14-.78-8.21-7.86-4.52-7.08,3.69-12.08,4.3-13.79-.27-1.71-4.56-.67-5.52-4.72-6.21-4.05-.7-13.82-.52-13.48-9.22Z"/><path class="cls-2" d="M94.73,56.8l-13.45-6.29s12.45-8.81,14.55-8.87c2.1-.07,3.05,6.89,2.99,7.3s-4.1,7.86-4.1,7.86Z"/><path class="cls-8" d="M46.94,136.02c-11.92-7.28-28.45-24.99-25.07-47.64,3.38-22.65,16.21-31.63,27.67-36.2,.3-12.76,13.62-26.6,30.47-13.93,0,0-.39-8.82-9.91-10.75s-15.36,.51-19.84,6.06c-4.48,5.55-8.17,15.22-8.17,15.22,0,0-10.73,2.1-20.99,17.98-10.25,15.88-17.06,50.98,25.84,69.26Z"/><path class="cls-8" d="M94.67,44.6c2.08,4.31,.87,10.63-.75,12.2l4.72,1.87s4.25-4.1,2.72-8.93c-1.53-4.83-3.37-10.66-6.7-5.14Z"/><path class="cls-3" d="M44.76,86.53c1.89,4.08,8.62,7.11,19.23,8.16,10.61,1.05,30.46,1.85,30.46,1.85,0,0,3.01,.12,3.56-.2s11.84-4.44,12.09-3.69,1.28,5.92,4.85,4.76c3.57-1.16,17.02-.84,17.02-.84,0,0,3.57,14.71-5.57,15.13-9.14,.42-30.37-8.83-30.37-8.83,0,0-36.04-2.52-43.19-3.36-7.15-.84-10.2-9.39-8.09-13Z"/><path class="cls-8" d="M79.72,50.21l33.4,21.64s8-4.22,14.01-4.17c6,.06,8.02,8.13,8.02,8.13l1.86-2.17s8.3,7.88,1.22,18.99c0,0,3.77,.56,5.37-3.41s6.03-16.17,.76-17.17-7.29-.57-8.6-5.04c-1.3-4.47-4.49-8.68-10.41-6.62s-11.1,4.15-11.1,4.15l-33.95-15.08-.58,.74Z"/><path class="cls-9" d="M34.66,44.05c-5.5-5.69-4.23-14.67,2.4-16.75,6.62-2.08,20.44-4.11,27.91-5.63,7.98-1.63,19.14-5.62,25.77-1.95,6.63,3.67,3.84,13.9,1.75,17.81-2.09,3.9,7.11-1.54,6.62-10.52-.5-8.97,.08-15.11-14.99-13.43-15.06,1.68-34.09,4.42-43.71,7.58-9.63,3.16-20.34,11.71-5.74,22.89Z"/><path class="cls-3" d="M129.33,107.16c-.1,.58-.25,1.09-.42,1.57,1.51-1.29,2.6-3.02,3.55-4.86,.51-1.74,.92-3.42,1.86-4.98,.11-.64,.17-1.3,.19-1.99,0-.11,.01-.22,.02-.33-1.18-2.72-2.92-4.69-4.95-5.12-2.19-.47-3.42-.15-5.06,.63-1.6,.77-4.54,2.1-7.32,3.33-.25,.11-.61,.22-.88,.11-.2-.09-.39-.31-.48-.57-.42-1.23-.6-1.86-.83-2.74-.09-.35-.19-.72-.32-1.15-.52-1.82-2.05-3.21-4-3.63-2.19-.47-3.42-.15-5.06,.63-1.58,.76-4.52,2.09-7.32,3.33-.25,.11-.61,.22-.88,.11-.2-.09-.39-.31-.48-.58-.42-1.23-.59-1.86-.83-2.74-.09-.35-.19-.72-.32-1.16-.52-1.82-2.05-3.21-4-3.63-2.18-.47-3.42-.15-5.06,.63-1.59,.76-4.53,2.1-7.32,3.33-.25,.11-.61,.22-.88,.11-.2-.09-.39-.31-.48-.58-.42-1.23-.6-1.86-.83-2.74-.09-.35-.19-.72-.32-1.15-.52-1.82-2.05-3.21-4.01-3.63l-12.85-2.74c-.4-.09-.93-.29-1.17-.75-.29-.58-.18-1.53,.32-2.61l-6.02-2.75c-2.16,5.23,.03,10.17,4.76,11.69l12.83,3.48c.02,.07,.62,1.89,1.22,3.29,2.02,4.73,8.08,4.56,10.12,3.77,2.67-1.03,7.57-2.78,7.61-2.8l3.59,6.66c.7,2.02,.08,1.72,1.99,2.55,.92,.4,1.37-.98,2.37-.98,1.09,0,2.21-.24,3.3-.72,2.86-1.26,5.88-2.63,7.51-3.42,.06-.03,.09-.04,.14-.06,.25,.91,.47,1.71,.96,3.14,.7,2.02,2.19,3.65,4.09,4.48,1.92,.84,4.12,.8,6.2-.11,2.84-1.25,5.86-2.62,7.51-3.42,.2-.09,.32-.15,.4-.18,.8,1.04,2.33,4.81,1.55,9.29Z"/><path class="cls-3" d="M76.46,104.37c.26-.81,.67-1.46,1.17-1.96-8.42-.6-16.82-1.26-19.85-1.62-4.02-.47-9.18-2.31-11.62-6.06-1.76-2.7-3.85-7.71-2.48-11.34-3.37,3.15-5.4,9.55-2.38,14.88,4.21,7.4,9.09,9.03,14.76,10.09,5.87,1.1,10.61,1.79,19.61,2.99-.06-1.52,.28-5.41,.78-6.98Z"/><ellipse class="cls-7" cx="123.42" cy="75.82" rx="5.59" ry="4.45" transform="translate(-17.32 110.07) rotate(-45.24)"/><path class="cls-7" d="M17.5,50.87c-2.85,3.17-2.18,9.64,1.42,12.87l13.04-14.22c-3.8-2.3-11.19-2.29-14.46,1.34Z"/><path class="cls-7" d="M3.8,80.6c-.89,4.17,2.93,9.44,7.65,10.45l4.03-18.9c-4.44-.1-10.66,3.67-11.68,8.45Z"/><path class="cls-7" d="M7.58,111.22c1.09,3.33,5.99,5.49,9.76,4.25l-4.97-15.09c-3.19,1.77-6.05,7.02-4.79,10.84Z"/><path class="cls-7" d="M24.66,136.67c2.38,2.57,7.73,2.51,10.64-.18l-10.78-11.67c-2.17,2.93-2.59,8.9,.13,11.85Z"/><path class="cls-7" d="M57.89,14.85c-2.83-2.18-6.41-7.41-4.62-9.34s7.25-2.85,9.46-1.62c2.21,1.23-1.44,10.35-1.44,10.35l-3.4,.61Z"/><path class="cls-5" d="M64.67,116.05c-18.24,.44-30.61-6.6-33.7-11.46l3.19-2.03c2.73,4.3,18.59,12.86,41.63,8.49l.7,3.72c-4.17,.79-8.12,1.19-11.83,1.28Z"/><path class="cls-5" d="M59.91,130.07c-5.9,0-12.92-.96-20.9-3.72l1.23-3.58c24.18,8.34,38.79-.92,38.94-1.01l2.07,3.17c-.45,.29-8.09,5.14-21.33,5.14Z"/><path class="cls-2" d="M66.92,56.8c9.05,.19,11.57-11.77,8.38-17.85l-5.5,3.41-2.88,14.44Z"/><path class="cls-7" d="M72.14,49.61c-.7,3.3-2.8,5.91-5.42,7.19-3.8-3.2-9.03-3.56-11.65-4.88-.69-1.82-.88-3.92-.43-6.04,1.15-5.39,6-8.92,10.83-7.89,4.83,1.03,7.82,6.23,6.67,11.62Z"/><path class="cls-7" d="M54.78,45.33c1.64-7.71,12.82-11.71,20.52-6.38l-8.39,7.81-12.13-1.43Z"/><circle class="cls-1" cx="64.97" cy="45.03" r="2.99"/><path class="cls-7" d="M66.72,56.8c-4.36-2.98-10.24-3.93-16.64-2.83,0,0,2.04-4.25,5.88-4.99,3.84-.74,10.77,7.82,10.77,7.82Z"/></g><path class="cls-6" d="M109.86,92.18c0-25.65-20.87-46.51-46.51-46.51s-46.51,20.87-46.51,46.51,20.87,46.51,46.51,46.51c9.68,0,18.68-2.98,26.13-8.06h0c12.29-8.38,20.38-22.49,20.38-38.46Z"/><g><path class="cls-6" d="M63.35,45.67c-25.65,0-46.51,20.87-46.51,46.51s20.87,46.51,46.51,46.51c9.68,0,18.68-2.98,26.13-8.06,8.15-5.56,14.46-13.64,17.78-23.11l-1.16-.57,1.16,.57c1.68-4.81,2.6-9.97,2.6-15.34,0-25.65-20.87-46.51-46.51-46.51Z"/><path class="cls-7" d="M145.54,69.53c-1.59-1.47-3.55-2.26-5.71-2.38-.3-1.81-1.13-3.64-2.61-5.35-4.34-5.03-15.32-4.61-22.91-1.01l-10.34-5.79c.9-3.53,1.16-8.01-.43-11.81-.9-2.14-2.32-3.88-4.16-5.16,1.3-2.81,2.11-5.7,2.48-8.34,1.13-8.02-1.32-14.89-6.38-17.93-6.98-4.19-13.81-2.68-24.14-.38-4.05,.9-8.63,1.92-14.19,2.84-2.22,.37-4.46,.69-6.64,1-11.76,1.67-22.88,3.24-26.22,12.76-3.06,8.71,1.55,16.5,8.02,21.2-10.64,7.63-18.08,18.88-20.88,31.98-2.96,13.87-.34,28.05,7.37,39.95,7.71,11.9,19.6,20.08,33.46,23.03,3.74,.8,7.5,1.19,11.22,1.19,10.52,0,20.78-3.14,29.72-9.22h0c8.11-5.53,14.61-13.26,18.66-22.31,3.98,1.52,7.71,2.58,10.29,2.63,.11,0,.23,0,.34,0,7.35,0,12.88-4.61,14.13-11.81,.25-1.44,.34-2.9,.29-4.34,6.77-3.43,10.83-8.38,12.1-14.76,1.32-6.67,0-12.8-3.48-15.99ZM30.53,30.17c2.01-5.72,10.76-6.96,20.9-8.4,2.21-.31,4.5-.64,6.8-1.02,5.73-.96,10.41-1.99,14.53-2.91,10.37-2.3,14.76-3.13,19.3-.4,2.7,1.62,3.97,6.07,3.23,11.33-.72,5.13-3.47,10.83-8.16,14.1-.2-4.07-1.61-7.93-4.18-11.22-3.99-5.11-10.41-8.32-16.78-8.36-.06,0-.12,0-.18,0-10.35,0-22.84,6.78-26.77,21.68-.22,.11-.43,.24-.65,.35-4.23-2.29-10.59-7.91-8.05-15.14Zm60.54,99.34c-4.22-2.51-7.62-7.04-9.29-12.46-1.28-4.19-1.28-8.32-.06-11.45,6.13,.42,11.85,.78,15.05,.94,2.52,1.5,5.69,3.16,9,4.69-3.28,7.28-8.37,13.57-14.7,18.28Zm51.45-45.28c-.76,3.82-3.05,6.86-6.96,9.24-1.18-3.02-3.03-5.23-5.21-5.69-2.19-.47-3.42-.15-5.06,.63-1.6,.77-4.54,2.1-7.32,3.33-.25,.11-.61,.22-.88,.11-.2-.09-.39-.31-.48-.57-.42-1.23-.6-1.86-.83-2.74-.09-.35-.19-.72-.32-1.15-.52-1.82-2.05-3.21-4-3.63-2.19-.47-3.42-.15-5.06,.63-1.58,.76-4.52,2.09-7.32,3.33-.25,.11-.61,.22-.88,.11-.2-.09-.39-.31-.48-.58-.42-1.23-.59-1.86-.83-2.74-.09-.35-.19-.72-.32-1.16-.52-1.82-2.05-3.21-4-3.63-2.18-.47-3.42-.15-5.06,.63-1.59,.76-4.53,2.1-7.32,3.33-.25,.11-.61,.22-.88,.11-.2-.09-.39-.31-.48-.58-.42-1.23-.6-1.86-.83-2.74-.09-.35-.19-.72-.32-1.15-.52-1.82-2.05-3.21-4.01-3.63l-12.85-2.74c-.4-.09-.93-.29-1.17-.75-.19-.37-.19-.91-.04-1.53l2.61,.56c.66-3.09-1.31-6.14-4.41-6.8-3.09-.66-6.14,1.31-6.8,4.41l2.12,.45c-.47,2.11-.27,4.14,.61,5.89,1.1,2.2,3.13,3.71,5.7,4.25l12.11,2.58c.02,.07,.04,.13,.05,.2,.25,.93,.47,1.72,.96,3.16,.7,2.02,2.18,3.66,4.09,4.49,.92,.4,1.9,.6,2.9,.6,1.09,0,2.21-.24,3.3-.72,2.85-1.26,5.87-2.63,7.51-3.42,.06-.03,.09-.04,.14-.06,.25,.91,.47,1.71,.96,3.14,.7,2.02,2.19,3.65,4.09,4.48,.92,.4,1.9,.6,2.9,.6,1.09,0,2.21-.24,3.3-.72,2.86-1.26,5.88-2.63,7.51-3.42,.06-.03,.09-.04,.14-.06,.25,.91,.47,1.71,.96,3.14,.7,2.02,2.19,3.65,4.09,4.48,1.92,.84,4.12,.8,6.2-.11,2.84-1.25,5.86-2.62,7.51-3.42,.2-.09,.32-.15,.4-.18,.8,1.04,2.33,4.81,1.55,9.29-1.01,5.83-5.81,6.36-7.82,6.33-3.9-.07-15.18-4.72-22.78-9.38l-.73-.45-.86-.04c-7.13-.29-33.43-2.15-39.35-2.84-4.02-.47-9.18-2.31-11.62-6.06-1.76-2.7-3.85-7.71-2.48-11.34-4.7,2.48-6.09,9.63-3.07,14.96,4.21,7.4,13.73,8.71,16.4,9.02,2.72,.32,9.68,.88,17.15,1.42-1.13,4.15-.97,8.98,.53,13.87,1.79,5.82,5.21,10.88,9.55,14.34-9.6,5.09-20.56,6.64-31.36,4.34-12.14-2.59-22.54-9.75-29.29-20.16-6.75-10.41-9.04-22.83-6.45-34.96,3.05-14.28,12.37-26.06,25.59-32.31l1.48-.7,.34-1.6c2.68-12.48,12.67-18.11,20.8-18.04,4.39,.03,8.84,2.26,11.61,5.81,1.82,2.33,3.7,6.26,2.36,11.76l-.65,2.69s8.19,3.43,11.87,5.64l-2.75-6.05c2.97-1.53,5.4-3.66,7.33-6.08,.67,.53,1.16,1.21,1.52,2.07,1.27,3.03,.39,7.37-.51,9.55l-1.12,2.72,18.5,10.35,1.63-.95c5.96-3.48,13.99-2.73,16.28-1.28,4.24,2.66,2.77,11.16,2.77,11.16,1.46-.87,2.65-2.06,3.51-3.46,1.42-.27,2.14,.18,2.56,.57,1.39,1.28,2.45,4.91,1.47,9.83Z"/></g></g></svg>